<?xml version="1.0" encoding="UTF-8"?>
<svg id="Capa_1"
  xmlns="http://www.w3.org/2000/svg" version="1.1" viewBox="0 0 686.02 285.59">
  <!-- Generator: Adobe Illustrator 29.8.3, SVG Export Plug-In . SVG Version: 2.1.1 Build 3)  -->
  <defs>
    <style>
      .st0 {
        fill: #ffffff;
      }

      .st1 {
        fill: none;
        stroke: #1d1d1b;
        stroke-miterlimit: 10;
      }
    </style>
  </defs>
  <path class="st0" d="M653.75,200.11c7.5,7.5,11.25,16.55,11.25,27.14s-3.84,20.09-11.51,27.56c-7.47,7.22-16.43,10.84-26.88,10.84s-19.9-3.7-27.3-11.1c-7.4-7.4-11.1-16.5-11.1-27.3s3.99-20.54,11.98-27.98c7.5-6.95,16.31-10.42,26.41-10.42s19.64,3.75,27.14,11.25ZM626.6,195.42c-8.82,0-16.34,3.2-22.56,9.59-6.11,6.25-9.17,13.67-9.17,22.25s3.11,16.45,9.33,22.66c6.18,6.22,13.65,9.33,22.4,9.33s16.17-3.13,22.35-9.38c6.18-6.29,9.27-13.82,9.27-22.61s-3.07-15.96-9.22-22.25c-6.22-6.39-13.68-9.59-22.4-9.59ZM620.92,233.56v15.06h-11.15v-42.57c2.64,0,6.59,0,11.85.03,5.26.02,8.19.04,8.78.08,3.37.24,6.17.97,8.39,2.19,3.79,2.08,5.68,5.47,5.68,10.16,0,3.58-1,6.17-3,7.76-2,1.6-4.45,2.55-7.37,2.87,2.67.56,4.69,1.37,6.04,2.45,2.5,2.01,3.75,5.19,3.75,9.53v3.8c0,.42.03.83.08,1.25s.15.83.29,1.25l.36,1.2h-10.63c-.35-1.35-.57-3.32-.68-5.89-.1-2.57-.33-4.31-.68-5.21-.56-1.49-1.6-2.54-3.13-3.13-.83-.35-2.1-.57-3.8-.68l-2.45-.16h-2.34ZM625.25,225.9c2.6,0,4.64-.52,6.1-1.56,1.46-1.04,2.19-2.73,2.19-5.05s-1.15-3.94-3.44-4.85c-1.53-.59-3.68-.89-6.46-.89h-2.71v12.35h4.32Z"/>
  <g>
    <path class="st0" d="M200.51,71.54c-1.07.47-3.38,1.16-8.31,1.77l-7.83.95c-9.33,1.17-16.27,3.11-21.21,5.92-9.22,5.28-13.89,13.87-13.89,25.53,0,9.01,2.94,16.12,8.74,21.13,5.69,4.91,12.95,7.4,21.56,7.4,6.7,0,12.81-1.54,18.18-4.59,2.66-1.53,5.15-3.27,7.44-5.21.3,1.68.84,3.48,1.59,5.35.42,1.06,1.46,1.76,2.62,1.76h24.99c1.55,0,2.81-1.24,2.81-2.77v-3.34c0-1.08-.63-2.06-1.63-2.51-1.04-.48-1.81-1.05-2.27-1.7-.07-.1-.67-1.04-.86-4.53-.11-3.89-.16-7.21-.16-9.94v-39.75c0-1.87-.3-3.49-.52-5.17h9.27v50.57c0,6.13,1.57,10.82,4.65,13.92,4.23,4.34,11.31,6.46,21.62,6.46.9,0,1.82-.02,2.76-.05l10.88-.4c1.51-.05,2.71-1.28,2.71-2.77v-16.93c0-.77-.32-1.5-.89-2.03-.56-.52-1.32-.77-2.11-.74l-4.32.15c-5.2,0-6.39-.59-6.35-.45-.07-.11-.59-1.08-.59-4.73v-43.01h11.45c1.55,0,2.81-1.24,2.81-2.77v-16.14c0-1.53-1.26-2.77-2.81-2.77h-11.45v-21.39c0-1.53-1.26-2.77-2.81-2.77h-22.73c-1.55,0-2.81,1.24-2.81,2.77v21.39h-9.44c-1.55,0-2.81,1.24-2.81,2.77v9.07c-2.12-3.75-5.17-6.71-9.23-8.76-7.83-3.95-16.89-5.95-26.91-5.95-15.61,0-26.88,4.21-33.49,12.51,0,0-.01.01-.01.02-4.15,5.3-6.51,12.1-7.03,20.2-.05.76.22,1.51.76,2.07.53.56,1.27.87,2.05.87h22.17c1.39,0,2.56-.99,2.78-2.34.45-2.83,1.34-5.06,2.6-6.6,1.69-1.98,4.84-2.98,9.37-2.98s7.58.57,9.65,1.68c.98.53,2.29,1.62,2.29,4.92,0,1.25-.38,2.7-3.25,3.9ZM203.68,91.19v3.82c-.14,6.6-1.92,11.13-5.29,13.44-3.71,2.55-7.66,3.79-12.05,3.79-2.47,0-4.47-.65-6.11-1.99-.02-.02-.04-.03-.06-.05-1.5-1.15-2.22-3.17-2.22-6.16,0-3.37,1.25-5.67,3.93-7.23,1.23-.72,3.88-1.78,9.49-2.76l5.16-.95c2.77-.51,4.92-1.07,6.57-1.68.19-.08.38-.15.58-.23Z"/>
    <path class="st0" d="M289.13,121.11c7.19,8.92,18.43,13.45,33.4,13.45s26.56-5.39,34.28-16.01c4.8-6.54,7.53-13.6,8.1-20.97.06-.77-.21-1.53-.74-2.1-.53-.57-1.28-.89-2.06-.89h-23.45c-1.44,0-2.65,1.07-2.8,2.49-.42,4.01-1.61,7.28-3.54,9.72-1.68,2.14-4.79,3.22-9.23,3.22-6.42,0-10.5-2.87-12.85-9.03-1.37-3.53-2.07-8.35-2.07-14.35,0-6.32.7-11.4,2.08-15.09,2.45-6.52,6.66-9.56,13.24-9.56,4.52,0,7.7,1.34,9.68,4.02,1.52,2.22,2.48,4.77,2.85,7.55.18,1.38,1.38,2.41,2.79,2.41h23.53c.79,0,1.56-.33,2.09-.92.54-.58.79-1.36.71-2.14-1.37-13.12-5.96-22.48-13.63-27.82-7.46-5.19-17.11-7.82-28.67-7.82-13.73,0-24.7,4.49-32.58,13.34-7.79,8.75-11.74,21.06-11.74,36.57,0,13.78,3.57,25.19,10.61,33.92Z"/>
    <path class="st0" d="M445.33,49.54c-3.14-4.21-7.21-7.37-12.09-9.42-9.05-3.79-20.91-4.3-30.89.23-2.71,1.23-5.24,2.98-7.58,5.24v-25.83c0-1.53-1.26-2.77-2.81-2.77h-22.89c-1.55,0-2.81,1.24-2.81,2.77v109c0,1.53,1.26,2.77,2.81,2.77h22.89c1.55,0,2.81-1.24,2.81-2.77v-46.9c0-6.75,1.39-11.95,4.13-15.43,2.6-3.31,6.4-4.92,11.6-4.92,4.76,0,7.84,1.48,9.47,4.61,1.37,2.43,2.06,5.78,2.06,9.94v52.7c0,1.53,1.26,2.77,2.81,2.77h23.45c1.55,0,2.81-1.24,2.81-2.77v-50.87c0-7.96-.27-13.58-.84-17.16-.6-3.84-2.27-7.61-4.95-11.2Z"/>
    <path class="st0" d="M458.01,42.12v86.64c0,1.53,1.26,2.77,2.81,2.77h23.3c1.55,0,2.81-1.24,2.81-2.77V42.12c0-1.53-1.26-2.77-2.81-2.77h-23.3c-1.55,0-2.81,1.24-2.81,2.77Z"/>
    <rect class="st0" x="457.26" y="15.88" width="28.52" height="18.68" rx="2.77" ry="2.77"/>
    <path class="st0" d="M497.28,131.54h22.89c1.55,0,2.81-1.24,2.81-2.77v-46.9c0-4.95.68-9.02,2.02-12.08,2.47-5.54,6.74-8.12,13.46-8.12,5.23,0,8.63,1.68,10.38,5.14,1.03,2.04,1.56,5.16,1.56,9.26v52.7c0,1.53,1.26,2.77,2.81,2.77h23.53c1.55,0,2.81-1.24,2.81-2.77v-58.35c0-11.68-3.26-20.25-9.69-25.47-6.27-5.09-14.36-7.67-24.07-7.67-7.84,0-14.46,1.95-19.67,5.81-1.28.95-2.56,2.14-3.87,3.56v-4.37c0-1.53-1.26-2.77-2.81-2.77h-22.17c-1.55,0-2.81,1.24-2.81,2.77v86.49c0,1.53,1.26,2.77,2.81,2.77Z"/>
    <path class="st0" d="M668.11,39.12h-22.33c-1.55,0-2.81,1.11-2.81,2.47v3.53c-2.81-2.6-6.04-4.57-9.66-5.89-3.6-1.3-7.84-1.96-12.6-1.96-12.82,0-22.89,4.29-29.92,12.75-6.83,8.22-10.29,18.45-10.29,30.42s3.63,22.53,10.79,29.93c7.27,7.51,17.09,11.33,29.19,11.33,7.91,0,14.48-1.72,19.5-5.1.87-.57,1.72-1.23,2.56-1.97-.23,6.95-1.4,10.41-2.4,12.13-2.3,4-6.91,5.95-14.09,5.95-5.07,0-8.76-.75-10.67-2.18-.01,0-.03-.02-.04-.03-.96-.68-1.69-1.95-2.18-3.76-.3-1.11-1.44-1.9-2.74-1.9h-24.99c-.79,0-1.54.29-2.07.8-.53.51-.8,1.19-.73,1.89.83,8.49,5.23,14.97,13.09,19.26,7.51,4.11,17.26,6.19,28.97,6.19,19.51,0,32.99-4.76,40.07-14.15,4.17-5.52,6.19-13.35,6.19-23.92V41.6c0-1.37-1.26-2.47-2.81-2.47ZM637.98,95.27c-3.18,3.06-6.95,4.55-11.55,4.55-6.98,0-11.48-2.63-14.17-8.27,0,0,0-.02-.01-.03-1.56-3.16-2.35-6.86-2.35-11,0-4.86.75-8.96,2.21-12.19,2.65-5.76,7.12-8.45,14.08-8.45,5.06,0,8.98,1.58,11.96,4.82,3.09,3.36,4.65,8.47,4.65,15.18,0,7.12-1.62,12.3-4.83,15.38Z"/>
    <path class="st0" d="M299.37,242.67l-4.67.17c-5.61,0-6.91-.64-6.86-.49-.07-.12-.63-1.18-.63-5.17v-47.08h12.36c1.68,0,3.04-1.36,3.04-3.04v-17.66c0-1.68-1.36-3.04-3.04-3.04h-12.36v-23.41c0-1.68-1.36-3.04-3.04-3.04h-24.54c-1.68,0-3.04,1.36-3.04,3.04v23.41h-10.19c-1.68,0-3.04,1.36-3.04,3.04v9.93c-2.29-4.11-5.58-7.35-9.97-9.59-8.45-4.32-18.23-6.51-29.05-6.51-16.85,0-29.02,4.61-36.15,13.69,0,0-.01.01-.02.02-4.48,5.81-7.03,13.24-7.58,22.11-.06.83.24,1.66.81,2.27.57.61,1.38.96,2.21.96h23.93c1.49,0,2.77-1.09,3-2.56.49-3.1,1.44-5.54,2.8-7.22,1.82-2.17,5.22-3.27,10.12-3.27s8.19.62,10.42,1.84c1.06.58,2.47,1.77,2.47,5.39,0,1.37-.41,2.95-3.51,4.27-1.15.51-3.65,1.27-8.97,1.94l-8.45,1.04c-10.07,1.28-17.56,3.4-22.9,6.48-9.95,5.78-15,15.18-15,27.94,0,9.87,3.17,17.65,9.43,23.13,6.15,5.38,13.98,8.1,23.28,8.1,7.23,0,13.83-1.69,19.63-5.03,2.87-1.67,5.56-3.58,8.03-5.71.33,1.84.91,3.81,1.71,5.85.45,1.16,1.58,1.92,2.82,1.92h26.97c1.68,0,3.04-1.36,3.04-3.04v-3.65c0-1.18-.68-2.25-1.76-2.75-1.12-.53-1.95-1.15-2.45-1.86-.07-.11-.72-1.14-.93-4.96-.11-4.26-.17-7.89-.17-10.88v-43.5c0-2.04-.32-3.82-.56-5.66h10v55.35c0,6.71,1.7,11.84,5.02,15.24,4.57,4.75,12.21,7.07,23.34,7.07.97,0,1.96-.02,2.98-.06l11.74-.44c1.63-.06,2.93-1.4,2.93-3.03v-18.53c0-.84-.35-1.65-.97-2.22-.61-.57-1.46-.85-2.28-.81ZM216.3,226.41c-.15,7.23-2.07,12.18-5.71,14.71-4.01,2.8-8.26,4.15-13.01,4.15-2.66,0-4.82-.71-6.59-2.18-.02-.02-.04-.04-.06-.05-1.62-1.26-2.4-3.47-2.4-6.75,0-3.69,1.35-6.2,4.25-7.91,1.33-.79,4.19-1.95,10.24-3.02l5.57-1.04c2.99-.56,5.31-1.17,7.09-1.84.21-.08.42-.16.63-.25v4.18Z"/>
    <path class="st0" d="M345.63,190.27c4.88,0,8.31,1.47,10.45,4.4,1.64,2.43,2.67,5.22,3.08,8.27.2,1.51,1.49,2.64,3.01,2.64h25.4c.86,0,1.68-.36,2.25-1,.58-.64.85-1.49.77-2.34-1.48-14.36-6.43-24.61-14.71-30.45-8.06-5.68-18.46-8.56-30.94-8.56-14.83,0-26.66,4.92-35.17,14.6-8.41,9.58-12.67,23.05-12.67,40.03,0,15.08,3.85,27.58,11.45,37.13,7.76,9.77,19.89,14.72,36.05,14.72s28.67-5.9,37-17.53c5.18-7.16,8.13-14.88,8.75-22.95.06-.85-.23-1.68-.8-2.3-.57-.62-1.38-.97-2.23-.97h-25.32c-1.55,0-2.86,1.17-3.02,2.72-.46,4.39-1.74,7.97-3.82,10.63-1.82,2.34-5.17,3.53-9.96,3.53-6.93,0-11.34-3.14-13.87-9.89-1.48-3.86-2.23-9.14-2.23-15.7,0-6.92.76-12.48,2.25-16.52,2.65-7.14,7.19-10.46,14.29-10.46Z"/>
    <path class="st0" d="M477.14,176.65c-3.39-4.6-7.78-8.07-13.05-10.31-9.76-4.14-22.56-4.7-33.34.25-2.92,1.34-5.65,3.26-8.18,5.73v-29.37c0-1.68-1.36-3.04-3.04-3.04h-24.71c-1.68,0-3.04,1.36-3.04,3.04v120.41c0,1.68,1.36,3.04,3.04,3.04h24.71c1.68,0,3.04-1.36,3.04-3.04v-51.33c0-7.39,1.5-13.08,4.45-16.89,2.81-3.63,6.91-5.39,12.52-5.39,5.13,0,8.46,1.62,10.23,5.05,1.48,2.66,2.23,6.32,2.23,10.88v57.69c0,1.68,1.36,3.04,3.04,3.04h25.32c1.68,0,3.04-1.36,3.04-3.04v-55.68c0-8.72-.3-14.86-.91-18.78-.65-4.21-2.45-8.33-5.34-12.26Z"/>
    <path class="st0" d="M577.2,256.96c-1.12-.53-1.95-1.15-2.45-1.86-.07-.11-.72-1.14-.93-4.96-.11-4.26-.17-7.89-.17-10.88v-43.5c0-12.61-4.63-21.36-13.75-26.02-8.45-4.32-18.23-6.51-29.05-6.51-16.85,0-29.02,4.61-36.15,13.69,0,0-.01.01-.02.02-4.48,5.81-7.03,13.24-7.59,22.11-.06.83.24,1.66.81,2.27.57.61,1.38.96,2.21.96h23.93c1.49,0,2.77-1.09,3-2.56.49-3.1,1.44-5.54,2.8-7.22,1.82-2.17,5.22-3.27,10.12-3.27s8.19.62,10.42,1.84c1.06.58,2.47,1.77,2.47,5.39,0,1.37-.41,2.95-3.51,4.27-1.15.51-3.65,1.27-8.97,1.94l-8.45,1.04c-10.07,1.28-17.56,3.4-22.9,6.48-9.95,5.78-15,15.18-15,27.94,0,9.87,3.17,17.65,9.43,23.13,6.15,5.38,13.98,8.1,23.28,8.1,7.23,0,13.83-1.69,19.63-5.03,2.87-1.67,5.56-3.58,8.03-5.71.33,1.84.91,3.81,1.71,5.85.45,1.16,1.58,1.92,2.82,1.92h26.97c1.68,0,3.04-1.36,3.04-3.04v-3.65c0-1.18-.68-2.25-1.76-2.75ZM542.78,226.41c-.15,7.23-2.07,12.18-5.71,14.71-4.01,2.8-8.27,4.15-13.01,4.15-2.66,0-4.82-.71-6.59-2.18-.02-.02-.04-.04-.06-.05-1.62-1.26-2.4-3.47-2.4-6.75,0-3.69,1.35-6.2,4.25-7.91,1.33-.79,4.19-1.95,10.24-3.02l5.57-1.04c2.99-.56,5.31-1.17,7.09-1.84.21-.08.42-.16.63-.25v4.18Z"/>
    <path class="st0" d="M20.1,131.54h23.3c1.55,0,2.81-1.24,2.81-2.77v-52.14c0-4.26.52-7.42,1.52-9.35,1.74-3.24,5.26-4.81,10.73-4.81,5.96,0,7.88,2.66,8.81,4.66.62,1.35,1.36,4.19,1.36,10.06v51.59c0,1.53,1.26,2.77,2.81,2.77h23.13c1.55,0,2.81-1.24,2.81-2.77v-51.59c0-3.46.54-6.43,1.6-8.78,1.96-4.21,5.32-6.17,10.58-6.17,5.81,0,7.79,2.57,8.77,4.51.87,1.72,1.32,4.04,1.32,6.87v55.17c0,1.53,1.26,2.77,2.81,2.77h23.54c1.55,0,2.81-1.24,2.81-2.77l.16-54.62c0-5.82-.28-10.17-.86-13.32-.95-4.82-2.82-8.98-5.58-12.35-3.36-4.07-7.19-6.97-11.38-8.61-10.1-3.98-20.97-2.88-29.63,1.49-3.59,1.92-6.77,4.65-9.5,8.14-1.67-2.72-3.77-5.11-6.3-7.16-4.61-3.24-10.63-4.89-17.91-4.89-7.7,0-14.11,1.91-19.04,5.66-1.17.88-2.34,1.98-3.54,3.31v-4.12c0-1.53-1.26-2.77-2.81-2.77h-22.33c-1.55,0-2.81,1.24-2.81,2.77v86.49c0,1.53,1.26,2.77,2.81,2.77Z"/>
    <path class="st0" d="M150.31,175.48c-3.63-4.45-7.76-7.62-12.28-9.43-10.89-4.36-22.64-3.16-31.98,1.63-3.88,2.1-7.31,5.09-10.26,8.91-1.81-2.98-4.07-5.6-6.81-7.84-4.97-3.55-11.48-5.35-19.34-5.35-8.31,0-15.23,2.09-20.56,6.19-1.26.97-2.53,2.17-3.82,3.62v-4.51c0-1.68-1.36-3.04-3.04-3.04h-24.1c-1.68,0-3.04,1.36-3.04,3.04v94.66c0,1.68,1.36,3.04,3.04,3.04h25.15c1.68,0,3.04-1.36,3.04-3.04v-57.08c0-4.66.56-8.12,1.65-10.23,1.88-3.54,5.67-5.26,11.59-5.26,6.44,0,8.51,2.91,9.51,5.1.67,1.48,1.47,4.59,1.47,11.01v56.47c0,1.68,1.36,3.04,3.04,3.04h24.97c1.68,0,3.04-1.36,3.04-3.04v-56.47c0-3.79.58-7.04,1.72-9.61,2.12-4.61,5.75-6.76,11.42-6.76,6.27,0,8.4,2.82,9.46,4.93.94,1.89,1.42,4.42,1.42,7.52v60.39c0,1.68,1.36,3.04,3.04,3.04h25.41c1.67,0,3.03-1.35,3.04-3.03l.17-59.78c0-6.37-.3-11.13-.93-14.58-1.02-5.28-3.04-9.83-6.02-13.52Z"/>
    <path class="st1" d="M543.86,19.51"/>
    <path class="st1" d="M221.18,19.51"/>
  </g>
</svg>