<?xml version="1.0" standalone="no"?>
<!DOCTYPE svg PUBLIC "-//W3C//DTD SVG 20010904//EN"
 "http://www.w3.org/TR/2001/REC-SVG-20010904/DTD/svg10.dtd">
<svg version="1.0" xmlns="http://www.w3.org/2000/svg"
 width="512.000000pt" height="512.000000pt" viewBox="0 0 512.000000 512.000000"
 preserveAspectRatio="xMidYMid meet">

<g transform="translate(0.000000,512.000000) scale(0.100000,-0.100000)"
fill="#000000" stroke="none">
<path d="M2340 5110 c-722 -71 -1365 -431 -1801 -1007 -260 -344 -424 -748
-485 -1197 -21 -150 -20 -465 1 -621 38 -287 111 -524 246 -806 l71 -146 -186
-664 c-101 -365 -184 -665 -183 -666 2 -1 307 80 680 179 l677 181 112 -53
c200 -93 394 -164 573 -209 544 -135 1149 -56 1675 220 229 120 414 255 604
439 152 147 256 271 366 438 221 332 344 656 412 1087 17 108 16 504 -1 620
-43 297 -123 556 -245 798 -140 281 -288 480 -518 702 -204 197 -383 323 -643
450 -249 122 -482 196 -747 236 -150 23 -471 33 -608 19z m445 -170 c899 -81
1680 -669 2010 -1514 155 -395 194 -860 110 -1281 -181 -901 -889 -1647 -1774
-1870 -552 -139 -1058 -72 -1630 214 l-121 61 -567 -155 c-312 -85 -568 -153
-570 -152 -1 2 67 255 153 563 l155 559 -65 125 c-144 280 -228 546 -267 845
-15 119 -15 416 1 535 102 802 584 1479 1305 1835 389 192 828 274 1260 235z"/>
<path d="M2415 4690 c-506 -37 -978 -254 -1342 -619 -234 -235 -403 -508 -507
-821 -82 -245 -112 -461 -103 -729 8 -249 50 -458 143 -710 38 -103 150 -325
191 -379 l25 -33 -112 -395 c-62 -218 -109 -398 -106 -401 3 -3 184 40 403 96
219 56 404 101 411 101 7 0 61 -27 120 -60 541 -303 1130 -362 1702 -171 465
156 870 478 1138 907 152 244 256 534 298 831 22 156 21 431 -1 578 -115 768
-634 1404 -1369 1679 -267 100 -598 147 -891 126z m435 -186 c409 -60 776
-240 1076 -526 263 -252 443 -555 537 -909 81 -302 81 -659 1 -959 -96 -360
-258 -645 -519 -906 -301 -302 -658 -485 -1095 -561 -144 -25 -436 -25 -570 0
-255 48 -521 152 -745 292 l-89 56 -305 -76 c-167 -41 -305 -74 -306 -73 -2 2
35 135 81 296 l84 293 -82 137 c-126 210 -204 403 -247 618 -132 647 54 1282
513 1752 338 346 791 554 1276 586 91 6 278 -4 390 -20z"/>
<path d="M1625 3787 c-62 -29 -199 -172 -250 -259 -224 -381 -43 -925 493
-1480 307 -318 689 -552 1097 -672 233 -68 426 -56 623 40 187 91 286 233 337
489 15 73 15 83 0 122 -9 23 -31 55 -49 70 -30 27 -551 274 -607 288 -37 9
-102 -11 -139 -42 -17 -14 -76 -84 -131 -154 -89 -115 -102 -127 -122 -120
-203 78 -444 243 -590 402 -60 64 -207 270 -207 289 0 3 45 60 100 125 106
126 125 163 117 229 -5 40 -206 530 -250 610 -38 68 -71 80 -232 84 -130 3
-143 1 -190 -21z m287 -155 c9 -9 228 -514 228 -525 0 -5 -47 -63 -105 -128
-111 -125 -125 -149 -125 -203 0 -107 249 -430 455 -591 184 -144 443 -277
542 -279 70 -1 87 13 215 180 58 76 110 138 115 137 11 -2 517 -234 522 -239
9 -8 -52 -194 -79 -241 -83 -145 -247 -233 -436 -233 -102 0 -161 11 -299 56
-354 116 -649 300 -934 583 -267 265 -461 560 -525 799 -66 247 -33 429 108
594 89 104 102 110 216 103 52 -3 98 -9 102 -13z"/>
</g>
</svg>
