<?xml version="1.0" standalone="no"?>
<!DOCTYPE svg PUBLIC "-//W3C//DTD SVG 20010904//EN"
 "http://www.w3.org/TR/2001/REC-SVG-20010904/DTD/svg10.dtd">
<svg version="1.0" xmlns="http://www.w3.org/2000/svg"
 width="128.000000pt" height="128.000000pt" viewBox="0 0 128.000000 128.000000"
 preserveAspectRatio="xMidYMid meet">

<g transform="translate(0.000000,128.000000) scale(0.100000,-0.100000)"
fill="#000000" stroke="none">
<path d="M500 1264 c-234 -50 -436 -254 -485 -489 -95 -454 306 -855 760 -760
181 38 349 168 433 335 95 191 95 389 0 580 -129 257 -422 396 -708 334z m-86
-316 l18 -58 275 0 275 0 29 -29 c19 -20 29 -40 29 -60 0 -32 -131 -297 -158
-319 -24 -19 -405 -17 -422 2 -6 8 -32 88 -56 178 -81 295 -70 268 -107 268
-36 0 -57 15 -57 40 0 31 23 41 90 38 l65 -3 19 -57z m98 -575 c38 -34 11
-103 -40 -103 -53 0 -83 68 -46 104 20 21 63 20 86 -1z m412 1 c21 -20 20 -63
-1 -86 -35 -39 -103 -11 -103 43 0 36 24 59 60 59 16 0 36 -7 44 -16z"/>
</g>
</svg>
