<?xml version="1.0" encoding="UTF-8"?>
<svg version="1.1" xmlns="http://www.w3.org/2000/svg" width="512" height="512">
<path d="M0 0 C1.44203041 0.56696594 1.44203041 0.56696594 2.91319275 1.14538574 C6.05145215 2.38336235 9.17973408 3.64472799 12.30859375 4.90625 C14.51625479 5.78164528 16.72459845 6.65532087 18.93359375 7.52734375 C23.41618962 9.29920005 27.89528835 11.07947101 32.37158203 12.8671875 C40.4954292 16.10864097 48.64476848 19.28351033 56.79684448 22.453125 C60.10460985 23.74034142 63.41047678 25.03239765 66.71644592 26.32421875 C78.17323822 30.80015128 89.64105426 35.24751154 101.11035156 39.69128418 C116.95446854 45.83020104 132.79816094 51.97024758 148.63110352 58.13793945 C150.33579341 58.80176744 152.04069853 59.46504309 153.74584961 60.12768555 C158.33461467 61.91125377 162.91904941 63.70511879 167.49658203 65.51733398 C169.04979113 66.13109938 170.60423491 66.74174622 172.15966797 67.34985352 C174.53612858 68.2810022 176.90718039 69.22482981 179.27734375 70.171875 C180.0003064 70.45270935 180.72326904 70.7335437 181.46813965 71.02288818 C185.01480157 72.45619011 186.5694143 73.14123082 188.74609375 76.40625 C189.00139475 78.35061806 189.00139475 78.35061806 189.00894928 80.6038084 C189.01663157 81.46379647 189.02431386 82.32378454 189.03222895 83.20983285 C189.03049598 84.15513558 189.02876302 85.10043832 189.02697754 86.0743866 C189.03291978 87.0783818 189.03886203 88.08237701 189.04498434 89.11679631 C189.06239421 92.49741252 189.0653779 95.87788737 189.06835938 99.25854492 C189.07761374 101.67634892 189.08766279 104.09414999 189.09844971 106.51194763 C189.12473376 113.09527558 189.13767011 119.67857406 189.14647102 126.26194167 C189.15199916 130.37763404 189.16047498 134.49331703 189.16947937 138.60900307 C189.19387597 150.01573058 189.214466 161.42245057 189.22122955 172.82920361 C189.22188825 173.92470945 189.22188825 173.92470945 189.22256026 175.04234673 C189.22299681 175.77440219 189.22343337 176.50645764 189.22388315 177.26069659 C189.22477007 178.74402885 189.2256632 180.22736111 189.2265625 181.71069336 C189.22722679 182.81436185 189.22722679 182.81436185 189.2279045 183.94032667 C189.23578248 195.83431592 189.27063004 207.72805872 189.31728154 219.62195297 C189.36484926 231.84886912 189.38963995 244.07566212 189.39196539 256.30267221 C189.39379211 263.16114314 189.40512194 270.01929386 189.44160461 276.87767601 C189.47585875 283.33985791 189.47880753 289.80159658 189.4613266 296.26384926 C189.45979314 298.62599438 189.46837456 300.98817293 189.4882431 303.35023499 C189.59610763 316.98202105 188.70464217 328.04249682 182.74609375 340.40625 C182.39157387 341.21045474 182.03705399 342.01465948 181.67179108 342.84323406 C179.59486318 347.47112817 177.15879891 351.94546414 174.74609375 356.40625 C174.37500488 357.09332031 174.00391602 357.78039062 173.62158203 358.48828125 C167.34331378 369.95456362 159.90087728 380.21142491 151.74609375 390.40625 C150.97523438 391.39109375 150.204375 392.3759375 149.41015625 393.390625 C138.20791434 407.46630443 125.4419232 420.75174001 111.74609375 432.40625 C110.84761719 433.19386719 109.94914062 433.98148437 109.0234375 434.79296875 C80.95746741 459.22252966 48.49369113 479.03718997 15.08496094 495.265625 C12.34359202 496.60254312 9.61196757 497.95868329 6.87890625 499.3125 C4.81423358 500.32379809 2.74913065 501.33421823 0.68359375 502.34375 C-0.29246826 502.82900146 -1.26853027 503.31425293 -2.27416992 503.81420898 C-13.87152807 509.43113169 -13.87152807 509.43113169 -19.40600586 507.75415039 C-21.89334622 506.7590588 -24.28401815 505.64393704 -26.69140625 504.46875 C-27.57320557 504.05415527 -28.45500488 503.63956055 -29.36352539 503.21240234 C-32.00362592 501.96329688 -34.63008086 500.68913357 -37.25390625 499.40625 C-37.96289062 499.06352051 -38.671875 498.72079102 -39.40234375 498.36767578 C-43.33207452 496.46396975 -47.22991752 494.50422959 -51.11230469 492.50585938 C-52.61044888 491.73663441 -54.11133894 490.97274452 -55.61425781 490.21289062 C-76.13710487 479.8348143 -95.77788574 468.11854171 -114.25390625 454.40625 C-115.31665771 453.61951904 -115.31665771 453.61951904 -116.40087891 452.81689453 C-155.55192576 423.6920152 -189.77750779 388.88190245 -211.12890625 344.53125 C-211.8257251 343.08709717 -211.8257251 343.08709717 -212.53662109 341.61376953 C-216.97197258 332.22536544 -219.70873884 324.39424699 -219.6415863 313.93583679 C-219.64697184 312.91824825 -219.65235738 311.9006597 -219.65790612 310.85223514 C-219.67214791 307.46215602 -219.66509131 304.07246944 -219.65795898 300.68237305 C-219.66366428 298.24421374 -219.67062915 295.8060571 -219.67875671 293.36790466 C-219.69482046 287.44614831 -219.69679406 281.52449003 -219.69154381 275.6027235 C-219.6874955 270.79079513 -219.68895347 265.97889809 -219.69429207 261.16697121 C-219.69504049 260.48105592 -219.69578891 259.79514063 -219.69656001 259.08844003 C-219.69809153 257.69490076 -219.69962988 256.30136149 -219.70117498 254.90782223 C-219.71488304 241.8588944 -219.7094727 228.81002665 -219.69798977 215.76110021 C-219.6880438 203.82064078 -219.70102452 191.88033601 -219.72492396 179.93990042 C-219.74929337 167.67216543 -219.75892911 155.40450256 -219.75227123 143.13674384 C-219.74877617 136.25200733 -219.75103074 129.36738996 -219.76852226 122.48267174 C-219.78474976 116.01557092 -219.78009671 109.54869368 -219.76121712 103.08159828 C-219.75751695 100.70474939 -219.76068092 98.32787873 -219.77110291 95.9510498 C-219.78421567 92.71426775 -219.77285144 89.47848324 -219.75511169 86.241745 C-219.7647167 85.29458026 -219.77432171 84.34741553 -219.78421777 83.37154883 C-219.71222989 77.0172615 -219.71222989 77.0172615 -217.34118271 73.85631371 C-215.35682165 72.47774694 -213.60645639 71.46578262 -211.35473633 70.60131836 C-210.59029205 70.30181778 -209.82584778 70.0023172 -209.03823853 69.69374084 C-208.20835419 69.3810173 -207.37846985 69.06829376 -206.5234375 68.74609375 C-205.64182953 68.40408432 -204.76022156 68.06207489 -203.85189819 67.70970154 C-200.92713587 66.57776006 -197.99685674 65.46087377 -195.06640625 64.34375 C-192.99935968 63.54676245 -190.93271599 62.74872926 -188.86645508 61.94970703 C-184.52794094 60.27371957 -180.18724247 58.60357904 -175.84472656 56.93798828 C-169.47281801 54.49280622 -163.10825801 52.02900375 -156.74609375 49.55859375 C-155.72833359 49.16343063 -154.71057343 48.76826752 -153.66197205 48.36112976 C-151.61336669 47.56567509 -149.56477757 46.77017858 -147.51620483 45.97463989 C-143.39243563 44.37412384 -139.26748455 42.77666588 -135.14256287 41.17912292 C-122.52102081 36.2904758 -109.91001018 31.37525268 -97.30328369 26.44854736 C-80.37126818 19.83232468 -63.42188205 13.26112473 -46.46875 6.69921875 C-45.46299423 6.30970032 -44.45723846 5.92018188 -43.42100525 5.51885986 C-41.55120311 4.79471418 -39.68123274 4.07100262 -37.81105042 3.34783936 C-36.53668373 2.85419891 -36.53668373 2.85419891 -35.23657227 2.35058594 C-34.40916534 2.03408081 -33.58175842 1.71757568 -32.72927856 1.39147949 C-31.05187802 0.72385286 -29.39044294 0.01491389 -27.74606323 -0.73034668 C-17.62957749 -5.21748074 -10.04112846 -4.11564968 0 0 Z " fill="#7B9C82" transform="translate(271.25390625,3.59375)"/>
<path d="M0 0 C4.78008442 4.02070646 8.27175119 8.15501955 11.45703125 13.52734375 C11.85019531 14.08421875 12.24335938 14.64109375 12.6484375 15.21484375 C13.3084375 15.21484375 13.9684375 15.21484375 14.6484375 15.21484375 C15.72749761 13.7561697 16.73607721 12.24512089 17.7109375 10.71484375 C24.82904916 0.31710626 34.101889 -6.46951177 46.43334961 -9.38818359 C61.23581051 -12.04097775 75.606177 -9.64930062 88.26953125 -1.5390625 C99.70009386 6.88839663 107.04609517 18.22359875 109.6484375 32.21484375 C113.19287542 65.90221617 94.6250271 94.83858742 74.6484375 120.21484375 C70.46868066 125.35161418 66.09648198 130.30995829 61.6484375 135.21484375 C61.11412109 135.80555664 60.57980469 136.39626953 60.02929688 137.00488281 C54.92280678 142.63313641 49.75942202 148.18518814 44.32836914 153.50366211 C42.64346843 155.21990525 41.07926589 156.99720284 39.515625 158.82421875 C35.36322108 163.59130751 31.01469254 168.14232715 26.5859375 172.65234375 C25.80927734 173.46638672 25.03261719 174.28042969 24.23242188 175.11914062 C23.47123047 175.89193359 22.71003906 176.66472656 21.92578125 177.4609375 C21.24765381 178.15888428 20.56952637 178.85683105 19.87084961 179.57592773 C17.11607065 181.60743725 15.03630338 181.98031923 11.6484375 182.21484375 C9.6640625 181.1328125 9.6640625 181.1328125 7.8984375 179.40234375 C7.22425781 178.75523437 6.55007812 178.108125 5.85546875 177.44140625 C5.12714844 176.70664062 4.39882812 175.971875 3.6484375 175.21484375 C2.82730469 174.41820312 2.00617188 173.6215625 1.16015625 172.80078125 C-2.59414797 169.12053766 -6.25314795 165.40425834 -9.6640625 161.40234375 C-12.87397848 157.64346351 -16.3396808 154.18767709 -19.8515625 150.71484375 C-23.9626959 146.64483906 -27.96111536 142.5541155 -31.703125 138.13671875 C-32.87738681 136.76767418 -34.08445005 135.42647865 -35.3125 134.10546875 C-59.75538819 107.80950962 -83.62136498 73.79956218 -82.66015625 36.58984375 C-81.95958466 23.10166049 -74.48660646 11.39023278 -64.859375 2.28515625 C-46.12603429 -13.18006272 -19.52548691 -14.82250419 0 0 Z " fill="#F7F6F0" transform="translate(242.3515625,169.78515625)"/>
<path d="M0 0 C12.01912707 -0.92454824 23.35207458 4.38643575 32.41015625 12.03515625 C42.9731516 22.03385134 48.91573997 34.2146815 49.47314453 48.82470703 C49.88869356 86.35256163 25.05567474 118.47366248 1 145 C0.46568359 145.59071289 -0.06863281 146.18142578 -0.61914062 146.79003906 C-5.72563072 152.41829266 -10.88901548 157.97034439 -16.32006836 163.28881836 C-18.00496907 165.0050615 -19.56917161 166.78235909 -21.1328125 168.609375 C-25.28521642 173.37646376 -29.63374496 177.9274834 -34.0625 182.4375 C-34.83916016 183.25154297 -35.61582031 184.06558594 -36.41601562 184.90429688 C-37.55780273 186.06348633 -37.55780273 186.06348633 -38.72265625 187.24609375 C-39.40078369 187.94404053 -40.07891113 188.6419873 -40.77758789 189.36108398 C-43.53236685 191.3925935 -45.61213412 191.76547548 -49 192 C-50.984375 190.91796875 -50.984375 190.91796875 -52.75 189.1875 C-53.41515625 188.55070313 -54.0803125 187.91390625 -54.765625 187.2578125 C-55.50296875 186.51273438 -56.2403125 185.76765625 -57 185 C-57.90234375 184.11054688 -58.8046875 183.22109375 -59.734375 182.3046875 C-62.17354783 179.88618563 -64.59346439 177.45091843 -67 175 C-66.25105469 174.26136719 -65.50210938 173.52273438 -64.73046875 172.76171875 C-62.49578447 170.50145868 -60.39521143 168.20958296 -58.3125 165.8125 C-52.97588277 159.82792925 -47.27384945 154.21937037 -41.55981445 148.59692383 C-36.81327141 143.90382243 -32.33962991 139.06956153 -28 134 C-27.06294208 132.93986202 -26.12423101 131.88118215 -25.18359375 130.82421875 C-1.28256778 103.67317049 21.73293296 70.91007985 20.17919922 33.24169922 C19.42794044 23.84379986 15.31163606 15.62343621 10 8 C9.56429687 7.36835938 9.12859375 6.73671875 8.6796875 6.0859375 C6.69342779 3.45008342 5.37289752 2.11601256 2.1875 1.125 C1.1046875 1.063125 1.1046875 1.063125 0 1 C0 0.67 0 0.34 0 0 Z " fill="#E8E7E1" transform="translate(303,160)"/>
</svg>
