<?xml version="1.0" encoding="UTF-8"?>
<svg version="1.1" xmlns="http://www.w3.org/2000/svg" width="512" height="512">
<path d="M0 0 C23.88374073 21.31085392 37.91416658 46.76449814 45.12109375 77.80078125 C45.476875 79.30125 45.476875 79.30125 45.83984375 80.83203125 C53.24422716 117.8539483 42.81537994 152.84648202 22.30004883 183.82763672 C12.89073115 197.6350212 2.2154762 211.32056508 -10.87890625 221.80078125 C-12.20148438 222.86232422 -12.20148438 222.86232422 -13.55078125 223.9453125 C-30.25845844 236.91807243 -49.64947682 247.68308434 -71.46875 245.39453125 C-92.10851645 241.80089494 -113.67402381 229.16335297 -126.87890625 212.80078125 C-126.87890625 212.14078125 -126.87890625 211.48078125 -126.87890625 210.80078125 C-123.90890625 209.81078125 -123.90890625 209.81078125 -120.87890625 208.80078125 C-120.50765625 206.94453125 -120.50765625 206.94453125 -120.12890625 205.05078125 C-119.9896875 204.3546875 -119.85046875 203.65859375 -119.70703125 202.94140625 C-119.96085313 199.78017012 -121.53061681 198.8460495 -123.87890625 196.80078125 C-126.22425771 195.56267714 -126.22425771 195.56267714 -128.80078125 194.65234375 C-129.744375 194.28625 -130.68796875 193.92015625 -131.66015625 193.54296875 C-133.62306161 192.80429647 -135.58659414 192.06728846 -137.55078125 191.33203125 C-149.03981844 186.86754125 -155.85268907 181.25360467 -161.19970703 170.02783203 C-162.5155401 166.99613251 -163.74383701 163.9435584 -164.94140625 160.86328125 C-165.37259766 159.76951172 -165.80378906 158.67574219 -166.24804688 157.54882812 C-169.51559898 149.10064879 -172.31200138 140.59219486 -174.4074707 131.77783203 C-174.72830246 130.43236565 -175.07153207 129.09208758 -175.43432617 127.75732422 C-177.12148481 121.15696193 -177.22456268 114.71371913 -177.19140625 107.92578125 C-177.1864917 106.73484863 -177.18157715 105.54391602 -177.17651367 104.31689453 C-176.70210644 68.18895887 -163.21879197 33.6622417 -137.2890625 8.2421875 C-118.82136203 -9.12021419 -95.38414612 -19.58111581 -71.28613281 -26.49755859 C-69.20831035 -27.1032038 -67.14706379 -27.76519201 -65.08984375 -28.4375 C-42.80029857 -35.02674511 -15.75479698 -13.81493845 0 0 Z M-153.87890625 75.80078125 C-154.95533334 77.6892848 -154.95533334 77.6892848 -154.87890625 79.80078125 C-153.23814133 83.24638759 -152.09378183 84.65753087 -148.87890625 86.80078125 C-145.23950693 86.48347601 -145.23950693 86.48347601 -141.87890625 85.80078125 C-141.79640625 86.50203125 -141.71390625 87.20328125 -141.62890625 87.92578125 C-139.93257895 94.42836925 -135.28792474 99.0673215 -129.87890625 102.80078125 C-123.83454773 105.68514126 -117.53738921 105.97485028 -111.15234375 103.92578125 C-104.94890582 101.07707259 -99.68572058 97.30027518 -97.07421875 90.796875 C-96.42371752 88.69282992 -96.42371752 88.69282992 -95.87890625 85.80078125 C-94.82703125 86.06890625 -93.77515625 86.33703125 -92.69140625 86.61328125 C-88.8020796 87.19573698 -88.8020796 87.19573698 -85.94140625 84.73828125 C-83.73653917 81.96686309 -83.73653917 81.96686309 -83.12890625 78.86328125 C-84.27621034 74.17845623 -86.8701497 72.30456691 -90.87890625 69.80078125 C-110.39168282 59.99034095 -137.92010658 58.20335483 -153.87890625 75.80078125 Z M-40.1875 73.7734375 C-42.18757183 75.8199775 -42.18757183 75.8199775 -42.44140625 79.30078125 C-42.16918135 82.87835794 -42.16918135 82.87835794 -39.81640625 85.30078125 C-36.06294778 87.21744089 -33.91062948 86.74942201 -29.87890625 85.80078125 C-29.69328125 86.79078125 -29.50765625 87.78078125 -29.31640625 88.80078125 C-27.62905348 94.57762094 -23.74789106 98.87191576 -18.8046875 102.1953125 C-12.41494456 105.44180667 -5.57102382 106.11556026 1.3515625 104.17578125 C7.30452692 101.59654715 12.45247455 96.73872256 15 90.7265625 C15.63872227 88.64067536 15.63872227 88.64067536 16.12109375 85.80078125 C17.17296875 86.04828125 18.22484375 86.29578125 19.30859375 86.55078125 C23.10251466 87.1263448 23.10251466 87.1263448 26.05859375 85.30078125 C28.37061368 82.88359868 28.37061368 82.88359868 28.87109375 79.42578125 C27.97286652 75.08434964 26.82267755 73.81744928 23.37109375 71.21484375 C4.48618257 59.34620166 -22.59933993 58.74463744 -40.1875 73.7734375 Z M-83.87890625 141.80078125 C-86.15649558 144.65132716 -86.15649558 144.65132716 -86.00390625 148.05078125 C-84.16566597 154.17824887 -79.93866521 157.13360489 -74.44140625 160.12890625 C-66.89998787 163.47541065 -60.61539315 163.98876365 -52.81640625 161.23828125 C-47.22395726 158.80906122 -43.14432639 155.06620139 -38.87890625 150.80078125 C-38.51494648 146.9428077 -38.3188309 144.64089427 -40.50390625 141.36328125 C-43.70127577 139.25974867 -45.10769978 139.061329 -48.87890625 139.80078125 C-50.83537475 141.20361079 -52.54026281 142.71285901 -54.265625 144.390625 C-56.79513001 146.60164512 -58.9463937 146.80578032 -62.25390625 147.05078125 C-66.21221131 146.77779469 -67.7052931 146.07927274 -70.87890625 143.80078125 C-77.11734175 139.38912098 -77.11734175 139.38912098 -83.87890625 141.80078125 Z M-102.87890625 184.80078125 C-104.38780094 187.81857062 -104.37916901 189.42400762 -103.87890625 192.80078125 C-101.85070004 195.76786036 -99.39478397 198.24496897 -96.87890625 200.80078125 C-96.37359375 201.37828125 -95.86828125 201.95578125 -95.34765625 202.55078125 C-91.642263 206.63427585 -87.41253623 209.62534704 -82.81640625 212.61328125 C-82.22657959 212.99863037 -81.63675293 213.38397949 -81.02905273 213.78100586 C-74.09720835 218.15080803 -67.96974724 219.72510581 -59.87890625 218.80078125 C-46.53513061 215.62470686 -35.85096541 204.64816326 -26.87890625 194.80078125 C-25.45848804 191.95994484 -25.56438353 189.94600847 -25.87890625 186.80078125 C-28.83180818 183.12574108 -32.07184919 181.58568778 -36.37890625 179.80078125 C-36.99113037 179.54659424 -37.60335449 179.29240723 -38.23413086 179.03051758 C-60.8094018 169.80511635 -82.07557935 170.71559295 -102.87890625 184.80078125 Z " fill="#7A9C82" transform="translate(320.87890625,178.19921875)"/>
<path d="M0 0 C14.98727623 15.55970692 24.14549256 34.52000957 24.25 56.3359375 C23.96550444 58.34346667 23.64706414 60.34760876 23.25 62.3359375 C18.82397678 61.74150396 14.72899701 60.62446997 10.47729492 59.31713867 C-42.27537129 43.22755073 -99.78242361 49.77406176 -148.5625 75.2109375 C-160.9977567 81.93937661 -171.59999378 90.56693752 -181.75 100.3359375 C-182.38164062 100.90441406 -183.01328125 101.47289062 -183.6640625 102.05859375 C-210.89931785 127.29315499 -222.34671444 168.41182712 -223.75 204.3359375 C-224.41 204.3359375 -225.07 204.3359375 -225.75 204.3359375 C-245.78382064 179.08885499 -251.70228253 148.74518256 -248.41601562 117.12207031 C-247.5672659 110.76886808 -246.28869058 104.55518067 -244.75 98.3359375 C-244.56808105 97.58070801 -244.38616211 96.82547852 -244.19873047 96.04736328 C-236.27821212 64.04677037 -217.07117781 34.24419113 -190.75 14.3359375 C-189.71488281 13.53542969 -188.67976563 12.73492187 -187.61328125 11.91015625 C-140.88460959 -23.41572618 -47.54037373 -44.3144198 0 0 Z " fill="#7A9C82" transform="translate(352.75,79.6640625)"/>
<path d="M0 0 C0.93005859 0.61875 0.93005859 0.61875 1.87890625 1.25 C22.51651621 14.70800475 44.72535283 25.5574672 70.05224609 20.59814453 C84.99145399 17.23516051 98.65972316 9.96515839 111 1 C112.91661964 3.87492946 113.31803436 4.89547319 113.74609375 8.1484375 C113.91637085 9.39488037 113.91637085 9.39488037 114.09008789 10.66650391 C114.20473389 11.56030762 114.31937988 12.45411133 114.4375 13.375 C114.62590454 14.75631104 114.62590454 14.75631104 114.81811523 16.16552734 C115.35545135 20.10688273 115.87458838 24.05058758 116.39550781 27.99414062 C116.778269 30.8719729 117.17015324 33.74846155 117.5625 36.625 C117.677146 37.51880371 117.79179199 38.41260742 117.90991211 39.33349609 C118.08018921 40.57993896 118.08018921 40.57993896 118.25390625 41.8515625 C118.35002197 42.58197754 118.4461377 43.31239258 118.54516602 44.06494141 C118.95372812 46.30932539 118.95372812 46.30932539 121 49 C123.37454245 49.90686887 123.37454245 49.90686887 126.24609375 50.47265625 C127.37080078 50.72700439 128.49550781 50.98135254 129.65429688 51.2434082 C130.90275391 51.5137085 132.15121094 51.78400879 133.4375 52.0625 C134.76789132 52.36083005 136.09796156 52.66059496 137.42773438 52.96166992 C140.35676002 53.62358541 143.28701497 54.27963238 146.21826172 54.93164062 C154.82190257 56.8492459 163.41196153 58.82634784 172 60.8125 C173.35194458 61.12491135 173.35194458 61.12491135 174.73120117 61.44363403 C188.35221896 64.59958659 201.91385444 67.94999384 215.4375 71.5 C216.25581299 71.71355133 217.07412598 71.92710266 217.91723633 72.14712524 C220.2158735 72.74876453 222.51257247 73.3572125 224.80859375 73.96875 C225.48256699 74.14540695 226.15654022 74.3220639 226.85093689 74.5040741 C230.09747417 75.37987159 233.06379599 76.34673822 236 78 C236 78.33 236 78.66 236 79 C117.2 79 -1.6 79 -124 79 C-123 77 -123 77 -119.94799805 75.95361328 C-118.55501261 75.56694242 -117.15930383 75.19001336 -115.76171875 74.8203125 C-114.99436905 74.61152466 -114.22701935 74.40273682 -113.43641663 74.18762207 C-110.85599159 73.49017619 -108.27210493 72.80678252 -105.6875 72.125 C-104.796073 71.88722839 -103.904646 71.64945679 -102.98620605 71.40447998 C-83.79560966 66.29476624 -64.46246768 61.81524218 -45.09489441 57.43258667 C-43.04202314 56.96662696 -40.98992748 56.49723519 -38.93867493 56.02420044 C-33.93491708 54.87254774 -28.93045878 53.77691831 -23.89257812 52.78417969 C-22.92322327 52.58214935 -21.95386841 52.38011902 -20.95513916 52.17196655 C-19.13174809 51.79230595 -17.30335364 51.43565042 -15.47015381 51.1065979 C-13.12346321 50.60254307 -11.13959798 50.08756202 -9 49 C-5.86433674 44.094602 -5.31097624 38.85765041 -4.6484375 33.14453125 C-4.54407379 32.32047287 -4.43971008 31.49641449 -4.33218384 30.64738464 C-4.00335301 28.03686262 -3.68861222 25.42488981 -3.375 22.8125 C-3.05146776 20.18981864 -2.72501029 17.56752921 -2.39639282 14.94548035 C-2.1935845 13.31987389 -1.99419485 11.69383627 -1.79867554 10.06733704 C-1.37936278 6.64260677 -0.88469585 3.33383378 0 0 Z " fill="#7A9B82" transform="translate(200,416)"/>
<path d="M0 0 C26.98724569 -0.89498519 62.517599 0.49557676 84.0625 19.1875 C85.72497784 20.77441067 87.37096771 22.37877458 89 24 C89.78632813 24.75152344 90.57265625 25.50304687 91.3828125 26.27734375 C106.65658835 41.83588491 109.3321813 62.97205763 109.38500977 83.82641602 C109.26919612 93.87716239 108.13885593 101.82344569 104 111 C103.73767578 111.60295898 103.47535156 112.20591797 103.20507812 112.82714844 C98.75734025 122.94388555 92.99697629 132.30446184 85 140 C84.83564453 138.36417969 84.83564453 138.36417969 84.66796875 136.6953125 C79.77253758 89.4398477 63.26569228 49.23578026 26.27075195 18.01123047 C19.26211931 12.36659453 11.46513242 7.78055245 3.76489258 3.15405273 C2 2 2 2 0 0 Z " fill="#7A9C82" transform="translate(299,145)"/>
<path d="M0 0 C20.90159608 -0.57310828 40.30776542 6.58345119 55.53125 20.8984375 C58.45193775 23.84501787 61.12617869 26.89516674 63.734375 30.12109375 C63.00734375 30.06050781 62.2803125 29.99992187 61.53125 29.9375 C59.40247783 29.76010232 57.27355877 29.5844626 55.14453125 29.41015625 C53.02618827 29.23059453 50.90871633 29.03995332 48.79296875 28.83203125 C4.43273985 24.60724754 -43.86989328 35.57010955 -81.4921875 59.46875 C-84.265625 61.12109375 -84.265625 61.12109375 -86.265625 61.12109375 C-79.51290382 39.40899502 -63.08642327 21.6669178 -43.265625 11.12109375 C-29.6854253 4.68053902 -15.02141386 0.80286867 0 0 Z " fill="#7A9C82" transform="translate(249.265625,13.87890625)"/>
<path d="M0 0 C2.24553756 2.09626773 3.82107272 4.16873781 5.375 6.8125 C9.91010483 14.1220219 14.06446876 17.96992317 21.4765625 22.38671875 C23.65298426 23.77814628 25.28244162 25.0922422 27 27 C26.21496094 27.42410156 25.42992187 27.84820312 24.62109375 28.28515625 C13.27535949 34.61927783 6.68970674 41.38887901 1 53 C-1.55370293 50.692707 -3.00326803 48.33309434 -4.625 45.3125 C-9.73793009 36.65208015 -17.09139031 31.38059294 -26 27 C-23.7323623 24.57297563 -21.33259459 22.76398733 -18.5625 20.9375 C-17.80066406 20.43089844 -17.03882813 19.92429687 -16.25390625 19.40234375 C-14 18 -14 18 -11.83984375 17.06640625 C-9.48665519 15.7024562 -9.07196957 14.46999655 -8 12 C-7.0212595 10.46539873 -6.02020547 8.94485358 -5 7.4375 C-4.484375 6.67308594 -3.96875 5.90867187 -3.4375 5.12109375 C-2.963125 4.42113281 -2.48875 3.72117187 -2 3 C-1.34 2.01 -0.68 1.02 0 0 Z " fill="#7A9C82" transform="translate(146,355)"/>
<path d="M0 0 C0.59296875 0.74378906 1.1859375 1.48757813 1.796875 2.25390625 C7.02151484 8.76617896 12.07814116 14.25358251 19 19 C16.69574614 21.48859416 14.56192762 23.28102757 11.6875 25.125 C7.52913207 27.96595395 5.15875338 31.79005477 2.48046875 35.98828125 C1.99191406 36.65214844 1.50335938 37.31601562 1 38 C0.34 38 -0.32 38 -1 38 C-2.26171875 36.2421875 -2.26171875 36.2421875 -3.6875 33.875 C-6.5955811 29.35683497 -9.76672051 26.24581905 -14 23 C-15.66783664 21.66813045 -17.33472284 20.33506836 -19 19 C-18.29875 18.55011719 -17.5975 18.10023438 -16.875 17.63671875 C-9.57667257 12.68853208 -4.75056087 7.40488571 0 0 Z " fill="#799C83" transform="translate(451,306)"/>
<path d="M0 0 C-4.58698996 6.16376776 -9.71249041 10.71982593 -17.5 12.0625 C-24.63013079 12.46609231 -29.31599982 8.73247467 -34.5 4.25 C-35.67435884 3.17500998 -36.84390132 2.09460407 -38 1 C-25.22558946 -7.5162737 -13.41738488 -4.95659407 0 0 Z " fill="#7A9B82" transform="translate(275,370)"/>
<path d="M0 0 C3 0 3 0 4.71875 1.6796875 C5.3065625 2.40414063 5.894375 3.12859375 6.5 3.875 C8.63040629 6.48194454 10.16002857 8.10668572 13 10 C13 13 13 13 11.3203125 14.71875 C10.23363281 15.60046875 10.23363281 15.60046875 9.125 16.5 C6.51805546 18.63040629 4.89331428 20.16002857 3 23 C0 23 0 23 -1.71875 21.3203125 C-2.3065625 20.59585937 -2.894375 19.87140625 -3.5 19.125 C-5.63040629 16.51805546 -7.16002857 14.89331428 -10 13 C-10 10 -10 10 -8.3203125 8.28125 C-7.59585937 7.6934375 -6.87140625 7.105625 -6.125 6.5 C-3.51805546 4.36959371 -1.89331428 2.83997143 0 0 Z " fill="#769F86" transform="translate(394,395)"/>
<path d="M0 0 C3.23772838 1.07924279 3.86999864 1.75143068 5.9375 4.3125 C8.15534919 7.03897594 10.48686834 9.54114764 13 12 C12.37351562 12.54269531 11.74703125 13.08539063 11.1015625 13.64453125 C10.28429687 14.35996094 9.46703125 15.07539063 8.625 15.8125 C7.81289063 16.52019531 7.00078125 17.22789062 6.1640625 17.95703125 C3.83816812 19.99981253 3.83816812 19.99981253 2 23 C-1.23772838 21.92075721 -1.86999864 21.24856932 -3.9375 18.6875 C-6.15534919 15.96102406 -8.48686834 13.45885236 -11 11 C-10.37351562 10.45730469 -9.74703125 9.91460937 -9.1015625 9.35546875 C-8.28429687 8.64003906 -7.46703125 7.92460937 -6.625 7.1875 C-5.40683594 6.12595703 -5.40683594 6.12595703 -4.1640625 5.04296875 C-1.83816812 3.00018747 -1.83816812 3.00018747 0 0 Z " fill="#7A9C82" transform="translate(39,322)"/>
<path d="M0 0 C1.1653125 0.01417969 2.330625 0.02835938 3.53125 0.04296875 C5.27921875 0.05263672 5.27921875 0.05263672 7.0625 0.0625 C10.03125 0.23046875 10.03125 0.23046875 12.03125 1.23046875 C12.50988248 7.45269097 12.50988248 7.45269097 10.53125 10.66796875 C7.01526025 12.86546234 4.07184653 13.0435662 0.03125 12.23046875 C-3.13337421 10.12071928 -3.81906064 8.76507362 -4.84375 5.10546875 C-4.885 4.15671875 -4.92625 3.20796875 -4.96875 2.23046875 C-2.96875 0.23046875 -2.96875 0.23046875 0 0 Z " fill="#799C83" transform="translate(197.96875,255.76953125)"/>
<path d="M0 0 C1.18851562 0.00902344 2.37703125 0.01804688 3.6015625 0.02734375 C4.51679688 0.03894531 5.43203125 0.05054688 6.375 0.0625 C7.453125 2.39453125 7.453125 2.39453125 8.375 5.0625 C7.03292764 7.94795558 5.62022908 9.81727092 3.375 12.0625 C-3.5523743 12.73289106 -3.5523743 12.73289106 -7.125 10.5 C-9.12978781 7.24221981 -8.91362859 4.81467167 -8.625 1.0625 C-5.74084117 -0.37957941 -3.20778472 -0.03144887 0 0 Z " fill="#7A9C82" transform="translate(314.625,255.9375)"/>
</svg>
