<?xml version="1.0" encoding="UTF-8"?>
<svg version="1.1" xmlns="http://www.w3.org/2000/svg" width="512" height="512">
<path d="M0 0 C0.74894531 0.72445312 1.49789063 1.44890625 2.26953125 2.1953125 C10.10282064 9.66161418 18.54910006 11.51992769 28.8046875 14.2734375 C52.3491273 20.64718637 75.34689687 32.29156619 94 48 C94.82032715 48.68594238 94.82032715 48.68594238 95.65722656 49.38574219 C108.69491533 60.4347658 118.40162009 72.74109422 126 88 C126.47695313 88.92167969 126.95390625 89.84335938 127.4453125 90.79296875 C131.89415499 100.82619743 131.56799932 114.10565809 128.4375 124.5 C124.30990334 134.86228811 117.64337967 143.02138438 110 151 C109.40960938 151.65355469 108.81921875 152.30710938 108.2109375 152.98046875 C92.70426349 169.54596852 71.14361936 180.81472904 50.9375 190.5 C50.0801123 190.91765625 49.22272461 191.3353125 48.33935547 191.765625 C44.42597898 193.61682222 40.73427259 195.16499245 36.5 196.1015625 C32.32066562 197.09312815 29.29940448 198.08582818 26 201 C23.38920626 207.63158345 23.12477936 214.97042731 22.39990234 221.99755859 C19.51499846 243.65723378 4.84730207 263.46552718 -11.84765625 276.72265625 C-32.20032562 291.42600971 -58.76570749 299.32203616 -83.84765625 298.953125 C-97.35121873 298.48668083 -97.35121873 298.48668083 -108.6875 304.75 C-110.05825378 306.25181098 -111.35885548 307.7844153 -112.6328125 309.36914062 C-114.59044613 311.70431788 -116.78296337 313.75809787 -118.98364258 315.86157227 C-125.1915629 321.83110275 -130.66031203 328.24582515 -136 335 C-136.99208909 336.2053545 -137.98706976 337.40833275 -138.984375 338.609375 C-161.12926126 365.34523328 -179.70660004 394.82336195 -197.37475586 424.64868164 C-199.89836613 428.89836613 -199.89836613 428.89836613 -201 430 C-216.10389821 431.5250538 -232.63896073 426.7971179 -244.4765625 417.33203125 C-245.69347355 416.26801415 -246.85697662 415.14302338 -248 414 C-247.74717179 407.08672868 -245.46402275 401.09612282 -243 394.6875 C-242.60498291 393.64529297 -242.20996582 392.60308594 -241.80297852 391.52929688 C-238.03823629 381.77144181 -233.66627679 372.35461636 -229 363 C-229.78503906 363.20496094 -230.57007813 363.40992188 -231.37890625 363.62109375 C-232.42949219 363.89050781 -233.48007813 364.15992188 -234.5625 364.4375 C-236.11130859 364.83775391 -236.11130859 364.83775391 -237.69140625 365.24609375 C-257.3236524 369.71955716 -279.54896477 367.97299334 -296.875 357.21484375 C-307.15590885 350.0324866 -314.81105116 341.89793165 -321 331 C-321.51304687 330.13246094 -322.02609375 329.26492188 -322.5546875 328.37109375 C-326.1125623 321.89133731 -328.32567382 315.19453662 -330.375 308.125 C-330.63804932 307.22088379 -330.90109863 306.31676758 -331.17211914 305.38525391 C-332.43528347 300.8157835 -333.33188953 296.78869186 -333 292 C-334.155 291.835 -335.31 291.67 -336.5 291.5 C-351.97306234 288.0479402 -366.27813474 278.08279788 -375 265 C-383.19657609 249.87586087 -384.55015264 232.54081764 -380.375 215.875 C-378.95757549 211.27467562 -377.12590066 207.15356887 -374.9375 202.875 C-371.7219154 196.33100326 -370.9163552 190.01980573 -370.03613281 182.87402344 C-366.45092292 153.95333034 -352.40700328 126.90910634 -329.31982422 108.67285156 C-324.98446599 105.4602751 -320.56447345 102.21953038 -315.68359375 99.8984375 C-308.38223844 96.38349933 -306.18094773 88.93074309 -302.93505859 81.95361328 C-288.94616008 52.72667701 -257.60164924 33.34914678 -228.11230469 22.7265625 C-215.70537804 18.45899272 -203.20268831 15.32461804 -190.19506836 13.55615234 C-184.52694844 12.68672173 -181.75518267 11.61331399 -178 7 C-161.8724788 -8.52909741 -143.06734523 -14.38168773 -120.87109375 -14.22265625 C-116.90917887 -13.99477618 -113.15680001 -13.37050699 -109.25 -12.6875 C-101.05640849 -11.35422628 -94.19216323 -13.3065551 -86.375 -15.73828125 C-58.82836534 -24.09657653 -22.89789703 -17.32619524 0 0 Z " fill="#7B9C82" transform="translate(382,50)"/>
<path d="M0 0 C0.74894531 0.72445312 1.49789063 1.44890625 2.26953125 2.1953125 C10.10282064 9.66161418 18.54910006 11.51992769 28.8046875 14.2734375 C52.3491273 20.64718637 75.34689687 32.29156619 94 48 C94.82032715 48.68594238 94.82032715 48.68594238 95.65722656 49.38574219 C108.69491533 60.4347658 118.40162009 72.74109422 126 88 C126.47695313 88.92167969 126.95390625 89.84335938 127.4453125 90.79296875 C131.89415499 100.82619743 131.56799932 114.10565809 128.4375 124.5 C124.30990334 134.86228811 117.64337967 143.02138438 110 151 C109.40960938 151.65355469 108.81921875 152.30710938 108.2109375 152.98046875 C92.70426349 169.54596852 71.14361936 180.81472904 50.9375 190.5 C50.0801123 190.91765625 49.22272461 191.3353125 48.33935547 191.765625 C44.42597898 193.61682222 40.73427259 195.16499245 36.5 196.1015625 C32.32066562 197.09312815 29.29940448 198.08582818 26 201 C23.38920626 207.63158345 23.12477936 214.97042731 22.39990234 221.99755859 C19.51499846 243.65723378 4.84730207 263.46552718 -11.84765625 276.72265625 C-32.20032562 291.42600971 -58.76570749 299.32203616 -83.84765625 298.953125 C-97.35121873 298.48668083 -97.35121873 298.48668083 -108.6875 304.75 C-110.05825378 306.25181098 -111.35885548 307.7844153 -112.6328125 309.36914062 C-114.59044613 311.70431788 -116.78296337 313.75809787 -118.98364258 315.86157227 C-125.1915629 321.83110275 -130.66031203 328.24582515 -136 335 C-136.99208909 336.2053545 -137.98706976 337.40833275 -138.984375 338.609375 C-161.12926126 365.34523328 -179.70660004 394.82336195 -197.37475586 424.64868164 C-199.89836613 428.89836613 -199.89836613 428.89836613 -201 430 C-216.10389821 431.5250538 -232.63896073 426.7971179 -244.4765625 417.33203125 C-245.69347355 416.26801415 -246.85697662 415.14302338 -248 414 C-247.74717179 407.08672868 -245.46402275 401.09612282 -243 394.6875 C-242.60498291 393.64529297 -242.20996582 392.60308594 -241.80297852 391.52929688 C-238.03823629 381.77144181 -233.66627679 372.35461636 -229 363 C-229.78503906 363.20496094 -230.57007813 363.40992188 -231.37890625 363.62109375 C-232.42949219 363.89050781 -233.48007813 364.15992188 -234.5625 364.4375 C-236.11130859 364.83775391 -236.11130859 364.83775391 -237.69140625 365.24609375 C-257.3236524 369.71955716 -279.54896477 367.97299334 -296.875 357.21484375 C-307.15590885 350.0324866 -314.81105116 341.89793165 -321 331 C-321.51304687 330.13246094 -322.02609375 329.26492188 -322.5546875 328.37109375 C-326.1125623 321.89133731 -328.32567382 315.19453662 -330.375 308.125 C-330.63804932 307.22088379 -330.90109863 306.31676758 -331.17211914 305.38525391 C-332.43528347 300.8157835 -333.33188953 296.78869186 -333 292 C-334.155 291.835 -335.31 291.67 -336.5 291.5 C-351.97306234 288.0479402 -366.27813474 278.08279788 -375 265 C-383.19657609 249.87586087 -384.55015264 232.54081764 -380.375 215.875 C-378.95757549 211.27467562 -377.12590066 207.15356887 -374.9375 202.875 C-371.7219154 196.33100326 -370.9163552 190.01980573 -370.03613281 182.87402344 C-366.45092292 153.95333034 -352.40700328 126.90910634 -329.31982422 108.67285156 C-324.98446599 105.4602751 -320.56447345 102.21953038 -315.68359375 99.8984375 C-308.38223844 96.38349933 -306.18094773 88.93074309 -302.93505859 81.95361328 C-288.94616008 52.72667701 -257.60164924 33.34914678 -228.11230469 22.7265625 C-215.70537804 18.45899272 -203.20268831 15.32461804 -190.19506836 13.55615234 C-184.52694844 12.68672173 -181.75518267 11.61331399 -178 7 C-161.8724788 -8.52909741 -143.06734523 -14.38168773 -120.87109375 -14.22265625 C-116.90917887 -13.99477618 -113.15680001 -13.37050699 -109.25 -12.6875 C-101.05640849 -11.35422628 -94.19216323 -13.3065551 -86.375 -15.73828125 C-58.82836534 -24.09657653 -22.89789703 -17.32619524 0 0 Z M-95.91015625 -4.8046875 C-99.80387182 -3.79064779 -102.95390418 -4.23576154 -106.92236328 -4.68945312 C-112.41825315 -5.24401222 -117.91803142 -5.22506734 -123.4375 -5.25 C-124.57509766 -5.270625 -125.71269531 -5.29125 -126.88476562 -5.3125 C-142.97301595 -5.38592042 -158.2238493 -0.3041607 -170 11 C-171.05416047 12.41324189 -172.07659515 13.85082337 -173.0625 15.3125 C-175.20269036 18.3145508 -175.84554886 18.93821954 -179.4375 20.375 C-180.95180832 20.62641026 -182.47481568 20.82636363 -184 21 C-185.18851563 21.15726563 -186.37703125 21.31453125 -187.6015625 21.4765625 C-190.17071268 21.81607544 -192.7423424 22.13750505 -195.31640625 22.4375 C-199.04645731 23.00709422 -202.40257781 23.88882712 -206 25 C-205.52949219 25.67804688 -205.05898437 26.35609375 -204.57421875 27.0546875 C-198.36026862 36.3434494 -194.84789528 44.68670935 -196 56 C-196.50996766 58.43651213 -197.17983046 60.64201257 -198 63 C-199.32 63 -200.64 63 -202 63 C-202.05607422 61.42412109 -202.05607422 61.42412109 -202.11328125 59.81640625 C-202.61861976 48.13375939 -203.75612366 38.95233447 -212 30 C-214.76157761 27.72302537 -214.76157761 27.72302537 -217.6015625 28.15625 C-235.85295371 32.68762989 -253.32912952 42.40709163 -268 54 C-268.95519531 54.68578125 -269.91039062 55.3715625 -270.89453125 56.078125 C-276.10384564 60.0912422 -276.10384564 60.0912422 -278.7265625 65.921875 C-278.97609793 74.85978035 -276.58158595 82.97983914 -271.02734375 90.00390625 C-266.90457906 94.06312158 -261.92195183 97.00541442 -257 100 C-257.33 101.65 -257.66 103.3 -258 105 C-265.84965945 104.16885959 -271.88741182 99.67109694 -276.9375 93.71484375 C-281.41513089 87.18869672 -284.18859644 80.9517549 -285 73 C-289.13887304 74.51422184 -290.57813994 76.9878366 -292.8125 80.6875 C-293.16231934 81.25621826 -293.51213867 81.82493652 -293.87255859 82.41088867 C-295.71937306 85.49854469 -297.28403858 88.55681072 -298.58203125 91.9140625 C-302.07946961 100.87408128 -305.70957685 104.93920133 -314.4375 109.1875 C-319.97794013 112.00632042 -324.40835077 115.85225644 -329 120 C-329.85335937 120.77085937 -330.70671875 121.54171875 -331.5859375 122.3359375 C-348.34522153 138.27014909 -359.27113772 161.03991739 -362 184 C-362.01933594 185.06734375 -362.03867187 186.1346875 -362.05859375 187.234375 C-362.19947851 194.56038255 -363.44819664 199.69647757 -366.875 206.0625 C-373.94934641 219.20818403 -376.81521385 234.79288567 -372.8125 249.5 C-367.91129495 262.94981851 -359.50252659 272.09848709 -347 279 C-333.29324673 285.16647784 -319.66295989 286.33002829 -304.75 286.1875 C-302.80480469 286.1865332 -302.80480469 286.1865332 -300.8203125 286.18554688 C-289.3933433 286.91021346 -289.3933433 286.91021346 -279.1328125 283.46875 C-278.80023438 282.8190625 -278.46765625 282.169375 -278.125 281.5 C-277.75246094 280.77554687 -277.37992187 280.05109375 -276.99609375 279.3046875 C-276.66738281 278.54414063 -276.33867187 277.78359375 -276 277 C-275.68160156 276.28070313 -275.36320312 275.56140625 -275.03515625 274.8203125 C-272.08673803 267.18431694 -272.57518531 259.93825325 -274 252 C-273 251 -273 251 -270.4375 250.9375 C-269.633125 250.958125 -268.82875 250.97875 -268 251 C-264.88563407 260.59425635 -266.4341616 272.81484913 -270 282 C-262.29693967 281.29840865 -254.67654372 280.2683824 -247.03125 279.10546875 C-222.8312606 275.52964942 -195.82900629 274.75256251 -172 281 C-168.13890886 281.61777458 -164.57530309 282.07328343 -161.22265625 279.7890625 C-157.03227547 275.24681769 -154.91389464 269.79689243 -153 264 C-152.6596875 263.02933594 -152.6596875 263.02933594 -152.3125 262.0390625 C-150.42454358 255.82453928 -150.82353397 249.43120638 -151 243 C-149.02 243 -147.04 243 -145 243 C-144.38701328 259.27820301 -146.36434917 269.97264267 -155 284 C-134.1280559 288.34549869 -134.1280559 288.34549869 -113 291 C-112.19884766 291.06654785 -111.39769531 291.1330957 -110.57226562 291.20166016 C-107.98572444 291.39443068 -105.40394819 291.51931208 -102.8125 291.625 C-101.60799194 291.71454956 -101.60799194 291.71454956 -100.37915039 291.8059082 C-98.00282503 291.85313669 -96.24600708 291.78889969 -94 291 C-86.11410889 282.69742819 -86.73031719 271.66745325 -87 261 C-87.81082031 260.97421875 -88.62164062 260.9484375 -89.45703125 260.921875 C-97.30336666 260.51996725 -103.78744865 259.10761231 -111 256 C-111 254.35 -111 252.7 -111 251 C-106.81306051 251.45675704 -102.8285491 252.01117382 -98.75 253.0625 C-87.56383342 255.57602971 -77.2678687 254.04114118 -67.24609375 248.46875 C-65.04936826 247.06614593 -62.95316018 245.72627793 -61 244 C-61 243.34 -61 242.68 -61 242 C-60.34 242 -59.68 242 -59 242 C-53.92876946 235.99627618 -50.2780453 229.09991378 -47 222 C-45.35 222 -43.7 222 -42 222 C-40.78320876 224.87858041 -40.96997306 225.92488176 -42.15234375 228.8828125 C-51.33107543 245.55315669 -60.77258871 254.80039459 -79 261 C-79.06731323 261.83809204 -79.06731323 261.83809204 -79.13598633 262.69311523 C-79.35002212 265.27567165 -79.58116977 267.85643746 -79.8125 270.4375 C-79.91788086 271.75524414 -79.91788086 271.75524414 -80.02539062 273.09960938 C-80.57815997 279.09162903 -81.83958 284.383938 -84 290 C-58.25112187 291.69153214 -30.99952517 281.92688682 -11.5234375 265.296875 C3.80897729 251.34105472 14.49176354 230.84108561 16 210 C16.11601563 208.4221875 16.11601563 208.4221875 16.234375 206.8125 C16.72477445 199.70921184 16.72477445 199.70921184 13.9375 193.4375 C4.61771375 185.70406034 -5.22573854 184.09543081 -17.17871094 184.73535156 C-28.00054154 185.75048347 -39.6697726 187.55659087 -50 191 C-61.65440807 191.87066015 -70.22017099 191.50733858 -79.6015625 183.88671875 C-81.79319611 181.97667274 -83.91722577 180.02743482 -86 178 C-93.28927433 184.73914042 -94.43449043 192.91519792 -94.921875 202.5078125 C-94.94765625 203.33023438 -94.9734375 204.15265625 -95 205 C-96.65 205 -98.3 205 -100 205 C-102.88483869 199.23032262 -101.14307447 191.61079085 -99.3125 185.75 C-97.52210823 180.82160974 -95.31147396 177.04735706 -92 173 C-96.14158853 163.06459347 -108.74518942 158.09034418 -118 154 C-127.21826241 150.23828754 -136.14906129 149.84918124 -146 149.9375 C-146.96550781 149.94201172 -147.93101562 149.94652344 -148.92578125 149.95117188 C-151.28392089 149.96284583 -153.64192602 149.97921979 -156 150 C-155.43047087 153.18493959 -154.64761437 156.00686688 -153.4375 159 C-151.0761181 165.85376697 -150.90846701 174.03384576 -153 181 C-155.97 180.01 -155.97 180.01 -159 179 C-158.95359375 178.02160156 -158.9071875 177.04320312 -158.859375 176.03515625 C-158.52661091 164.95287464 -158.52661091 164.95287464 -163 155 C-163.99 154.34 -164.98 153.68 -166 153 C-168.42963936 153.68691375 -170.47036492 154.45811563 -172.75 155.5 C-173.78326416 155.96128296 -173.78326416 155.96128296 -174.83740234 156.43188477 C-184.46553128 160.91960767 -193.36852543 166.7597992 -202.36816406 172.36865234 C-205.88300389 174.54733136 -209.42374056 176.6738962 -213 178.75 C-214.010625 179.34296875 -215.02125 179.9359375 -216.0625 180.546875 C-222.80822163 183.88385432 -229.57039683 185.1017653 -237 184 C-244.24710666 181.48588028 -251.13587335 177.88153233 -255 171 C-255.875 167.5625 -255.875 167.5625 -256 165 C-254.35 164.67 -252.7 164.34 -251 164 C-250.64808594 164.53109375 -250.29617187 165.0621875 -249.93359375 165.609375 C-246.4335655 170.61724832 -243.5059659 173.35290101 -238 176 C-237.34 176.33 -236.68 176.66 -236 177 C-230.02879973 177.55845758 -225.0965711 177.48058514 -220 174 C-216.06184264 169.83572834 -216.52637369 165.88226793 -216.625 160.40234375 C-217.08884318 156.19393323 -218.33728934 152.88547954 -220.22265625 149.12109375 C-221.13428218 146.63359183 -220.88475516 145.45394357 -220 143 C-218.35 143 -216.7 143 -215 143 C-211.28711616 150.82228925 -209.93872435 158.42796447 -209 167 C-205.3425752 165.63821911 -202.12069113 163.98065032 -198.7890625 161.953125 C-176.96543813 148.83942538 -176.96543813 148.83942538 -165 145 C-164.2265625 144.75121094 -163.453125 144.50242188 -162.65625 144.24609375 C-155.35115588 142.29716006 -147.51632421 142.35045438 -140 142 C-140.03480469 141.14277344 -140.06960937 140.28554687 -140.10546875 139.40234375 C-140.30491557 130.97809015 -140.28980594 125.61076262 -134.4375 119.1875 C-133.633125 118.465625 -132.82875 117.74375 -132 117 C-131.34 116.34 -130.68 115.68 -130 115 C-127.875 115.375 -127.875 115.375 -126 116 C-125.2890625 117.7734375 -125.2890625 117.7734375 -125 120 C-126.3984375 121.8515625 -126.3984375 121.8515625 -128.375 123.625 C-132.06254671 126.86409113 -132.06254671 126.86409113 -133.16796875 131.49609375 C-133.17763672 132.95208984 -133.17763672 132.95208984 -133.1875 134.4375 C-133.20167969 135.40558594 -133.21585938 136.37367188 -133.23046875 137.37109375 C-133.19149451 140.23266727 -133.19149451 140.23266727 -131 143 C-127.97685747 143.96382811 -127.97685747 143.96382811 -124.375 144.6875 C-104.93355179 149.39176283 -91.55682869 160.99532102 -78.01196289 175.14819336 C-73.16061381 180.14434195 -69.18513756 184.02871806 -61.9140625 184.29296875 C-60.48407821 184.27329007 -59.05423139 184.23789785 -57.625 184.1875 C-56.88894531 184.17396484 -56.15289062 184.16042969 -55.39453125 184.14648438 C-53.59603257 184.11144869 -51.79791578 184.05765288 -50 184 C-50.23976563 182.77023438 -50.23976563 182.77023438 -50.484375 181.515625 C-52.5907267 167.1541361 -51.4065541 154.99842808 -42.71875 143.12890625 C-41.21751026 141.26941612 -39.82374182 139.54354429 -38 138 C-35.3125 137.8125 -35.3125 137.8125 -33 138 C-32.73612847 140.94318249 -32.62595276 142.48305831 -34.390625 144.921875 C-35.00421875 145.52515625 -35.6178125 146.1284375 -36.25 146.75 C-43.47744654 154.66647289 -44.57043056 161.83103698 -44.3359375 172.328125 C-44.02969834 175.67539026 -43.45334769 178.00029037 -42 181 C-40.24967156 180.85816304 -38.49974466 180.71136571 -36.75 180.5625 C-35.77546875 180.48128906 -34.8009375 180.40007812 -33.796875 180.31640625 C-31.14138787 180.09190007 -31.14138787 180.09190007 -29.19677734 179.49291992 C-24.22145037 178.37654015 -18.95039271 178.77164347 -13.875 178.75 C-12.09609375 178.7190625 -12.09609375 178.7190625 -10.28125 178.6875 C-1.09706179 178.64695171 7.60177648 179.2758446 14.875 185.4375 C15.57367188 186.01371094 16.27234375 186.58992187 16.9921875 187.18359375 C19.06514759 189.05893702 21.04345025 191.00396831 23 193 C34.86305907 188.02620956 46.59503257 182.96125188 58 177 C56.40582875 172.79583676 54.38334659 169.05694654 52.12109375 165.18359375 C49.8952059 160.84815364 49.88900881 157.09911949 49.9375 152.25 C49.94652344 151.07953125 49.95554687 149.9090625 49.96484375 148.703125 C49.98224609 147.36507812 49.98224609 147.36507812 50 146 C51.65 146 53.3 146 55 146 C55.77299796 148.77406527 56.10366098 151.31820998 56.25 154.1875 C56.9649099 161.17516774 60.810865 166.54922493 65 172 C82.16555273 169.18177492 102.28729684 149.14239155 112.41796875 135.8203125 C119.97602982 124.77921054 123.73493464 114.22941213 121.64453125 100.69921875 C115.19865646 74.9589805 91.92796791 54.76114137 70.25 41.71875 C60.52331633 36.01450732 50.39388627 31.34772438 40 27 C39.22245361 26.66274902 38.44490723 26.32549805 37.64379883 25.97802734 C32.30391585 23.72803795 27.04782442 22.19580818 21.39941406 20.92211914 C5.6516944 17.34863808 5.6516944 17.34863808 -0.11328125 11.015625 C-8.33223967 2.23512284 -21.58728334 -3.01326777 -33 -6 C-34.29935464 -3.48287811 -35.58954372 -0.96170913 -36.875 1.5625 C-37.42220703 2.61920898 -37.42220703 2.61920898 -37.98046875 3.69726562 C-42.18849416 11.99855212 -43.30283401 19.06756851 -43.1875 28.3125 C-43.18685547 29.31345703 -43.18621094 30.31441406 -43.18554688 31.34570312 C-43.35841026 36.33553076 -43.35841026 36.33553076 -42 41 C-41.86584528 43.6723621 -41.95681459 46.32250488 -42 49 C-43.65 48.67 -45.3 48.34 -47 48 C-49.72365994 41.28081158 -50.4837365 35.34410344 -50.375 28.125 C-50.36484863 27.15046875 -50.35469727 26.1759375 -50.34423828 25.171875 C-50.19727476 18.37281855 -49.59492844 12.33999 -47 6 C-46.63817627 5.10982178 -46.63817627 5.10982178 -46.26904297 4.20166016 C-44.5887798 0.09945117 -42.82295407 -3.9588235 -41 -8 C-47.6527592 -9.53206512 -53.98546448 -10.38685135 -60.8125 -10.375 C-62.14970093 -10.3747583 -62.14970093 -10.3747583 -63.51391602 -10.37451172 C-74.16976052 -10.19739594 -85.97889683 -8.88383567 -95.91015625 -4.8046875 Z " fill="#91AC97" transform="translate(382,50)"/>
<path d="M0 0 C6.85446309 0.45457172 13.50083768 1.20661407 20.2421875 2.5234375 C24.79946789 3.31095621 29.3906772 3.66121032 34 4 C29.96958074 8.86034632 25.71092731 13.34980809 21.1875 17.75 C15.34159659 23.52488199 10.088486 29.54318163 5 36 C4.00939677 37.20420311 3.0156969 38.40586303 2.01953125 39.60546875 C-19.9008638 66.0635252 -41.57109242 96.14218484 -57 127 C-69.85339016 127.92729869 -80.42261863 124.16301222 -91 117 C-90.4124959 110.82071584 -87.90195357 105.46349878 -85.5 99.8125 C-85.05438721 98.75619385 -84.60877441 97.6998877 -84.1496582 96.61157227 C-81.26820689 89.83789342 -78.3020036 83.10732719 -75.1875 76.4375 C-74.83945313 75.68380127 -74.49140625 74.93010254 -74.1328125 74.15356445 C-70.24181691 65.98228878 -66.71103689 60.75405917 -58.5 56.6875 C-45.37048716 49.71980905 -34.64584512 40.28615444 -24 30 C-23.43788818 29.46560303 -22.87577637 28.93120605 -22.29663086 28.38061523 C-17.83538922 24.0529326 -14.03604543 19.40664426 -10.3125 14.4375 C-9.75755859 13.70853516 -9.20261719 12.97957031 -8.63085938 12.22851562 C-5.60955145 8.23722774 -2.72601298 4.19845795 0 0 Z " fill="#7B9C82" transform="translate(234,344)"/>
<path d="M0 0 C4.55555556 0.55555556 4.55555556 0.55555556 6 2 C7.01827559 14.63053373 5.19254518 26.06478628 -3 36 C-4.3156287 37.35080594 -5.64489645 38.68879829 -7 40 C-6.36835938 40.36609375 -5.73671875 40.7321875 -5.0859375 41.109375 C0.78739092 44.66383888 5.83565766 48.49427592 10.9375 53.0625 C17.57361135 58.9249432 25.04469113 65.01608852 34.25 65.625 C45.39182251 63.76802958 52.6064683 55.57458717 60.125 47.6875 C66.13622672 41.72388696 70.68524332 39.77799491 79.25 39.4375 C86.70576621 39.62370795 92.43448767 41.59871418 99 45 C99.76957031 45.38414063 100.53914062 45.76828125 101.33203125 46.1640625 C101.88246094 46.43992188 102.43289063 46.71578125 103 47 C103.81567174 45.56429734 104.62742093 44.12636566 105.4375 42.6875 C106.11619141 41.48673828 106.11619141 41.48673828 106.80859375 40.26171875 C110.09721401 34.01873144 109.52838375 26.70364894 108.4375 19.875 C108.2209375 18.451875 108.2209375 18.451875 108 17 C109 16 109 16 112.0625 15.9375 C113.5165625 15.9684375 113.5165625 15.9684375 115 16 C118.60753161 22.46349413 118.89942237 28.7046852 118 36 C116.0399522 42.56460452 113.10742666 48.52343112 109 54 C109.66 54 110.32 54 111 54 C116.71326118 59.94125517 120.97877437 66.95986314 125.140625 74.01953125 C129.39722546 80.8426114 134.25621611 84.76506428 141 89 C141.70125 89.44085938 142.4025 89.88171875 143.125 90.3359375 C149.86255468 93.93440421 157.55356142 93.93501661 165 93 C168.75264702 91.29567281 170.5731278 89.75164627 172.25 86 C172.56453125 85.319375 172.8790625 84.63875 173.203125 83.9375 C175.72805292 77.79845957 175.98969696 71.23303353 173.9375 64.875 C170.12142433 56.17504766 163.6945786 51.85020267 155.37890625 47.73828125 C154.59386719 47.16464844 153.80882812 46.59101562 153 46 C152.58984375 43.35546875 152.58984375 43.35546875 153 41 C154 40 154 40 156.4375 39.5625 C165.11365912 40.62799323 172.71607117 47.31876555 178 54 C183.18016961 62.67227401 184.82937729 69.89772388 184 80 C183.08606605 83.60109843 181.7479645 86.72905654 180 90 C179.66097656 90.65871094 179.32195312 91.31742187 178.97265625 91.99609375 C175.69217208 97.42465297 171.02700474 100.25715914 165 102 C152.83804305 103.54377782 142.92864433 101.29832937 132.75 94.1875 C131.8425 93.465625 130.935 92.74375 130 92 C129.82984375 92.9178125 129.6596875 93.835625 129.484375 94.78125 C127.06697961 107.02252876 123.57918785 116.22538068 113.375 124 C110.70939287 125.1223609 108.86430217 125.3182558 106 125 C105 124 105 124 104.70703125 121.61328125 C105 119 105 119 106.57421875 117.48046875 C107.27160156 117.05378906 107.96898437 116.62710938 108.6875 116.1875 C116.11111949 111.03293735 119.26268897 103.71248519 121 95 C122.51842053 86.35272376 119.97533118 81.1629904 115.140625 74.00390625 C114.43421875 73.01261719 113.7278125 72.02132812 113 71 C112.49984375 70.24589844 111.9996875 69.49179688 111.484375 68.71484375 C105.19704575 59.6271236 96.11272318 51.21037742 85 49 C83.04593767 48.83398635 81.08552905 48.73489192 79.125 48.6875 C78.11695313 48.65011719 77.10890625 48.61273438 76.0703125 48.57421875 C69.90343378 49.42942203 66.17049441 53.67704535 62.10571289 58.02685547 C54.33548341 66.32430746 47.01003486 73.04869427 35.06616211 73.48876953 C29.92640848 73.5175777 25.68656774 73.20544364 21 71 C20.98582031 71.65484375 20.97164063 72.3096875 20.95703125 72.984375 C20.58774532 80.05071114 19.26998733 89.73001267 14 95 C11.5625 95.1875 11.5625 95.1875 9 95 C8.34 94.34 7.68 93.68 7 93 C7.28281299 89.79478611 8.26458988 87.39673508 9.5625 84.4375 C11.99585773 78.1203595 11.92566268 71.20896397 10.0625 64.75 C2.23947757 54.31930343 -11.48904212 45.14338867 -24.32421875 42.3671875 C-39.28073864 40.31475995 -49.46667163 45.21315026 -62 53 C-61.68546875 53.556875 -61.3709375 54.11375 -61.046875 54.6875 C-58.89984636 58.51593661 -56.77234955 62.35400308 -54.75 66.25 C-54.43546875 66.85328125 -54.1209375 67.4565625 -53.796875 68.078125 C-51.96372968 72.4992402 -51.8397436 76.88461316 -51.8125 81.625 C-51.79832031 82.75164062 -51.78414062 83.87828125 -51.76953125 85.0390625 C-52 88 -52 88 -54 91 C-56.5625 91.25 -56.5625 91.25 -59 91 C-60.89954017 89.10045983 -60.22397748 85.59424403 -60.3125 83.0625 C-60.73240711 75.10507104 -62.00034121 67.75533285 -67.75 61.875 C-68.4925 61.25625 -69.235 60.6375 -70 60 C-79.52552592 69.56703148 -84.45264394 77.66702921 -84.76171875 91.34765625 C-85 94 -85 94 -87 96 C-91.55555556 95.44444444 -91.55555556 95.44444444 -93 94 C-94.1116029 79.29065001 -89.2248291 67.93036964 -79.6953125 56.796875 C-68.15997195 44.82686944 -52.44982876 34.15843044 -35.5078125 32.69921875 C-28.14615717 32.67371648 -21.88811733 33.333632 -15 36 C-15 35.34 -15 34.68 -15 34 C-14.0925 33.443125 -13.185 32.88625 -12.25 32.3125 C-6.81180297 28.44301365 -4.79181649 23.33209726 -3 17 C-2.64568203 13.08639696 -2.49771327 9.19168827 -2.34375 5.265625 C-2 2 -2 2 0 0 Z " fill="#91AC97" transform="translate(282,77)"/>
<path d="M0 0 C7.05426721 5.67183756 10.21650117 12.46338117 11.2734375 21.28125 C11.62972049 29.06466308 9.75636981 36.29110542 4.8125 42.375 C-1.82828513 49.2509796 -9.88152395 51.02537829 -19 53 C-19.74072754 53.17329834 -20.48145508 53.34659668 -21.24462891 53.52514648 C-24.49935709 54.08605791 -27.61525634 54.16295407 -30.91796875 54.2109375 C-32.26889192 54.23902546 -33.61980321 54.26769003 -34.97070312 54.296875 C-37.07234098 54.33788733 -39.17376167 54.37482652 -41.27563477 54.40136719 C-53.94362589 54.57467618 -64.70811752 56.0818047 -75 64 C-78.29793683 67.47186454 -81.4133404 71.1044268 -82 76 C-80.10413616 78.14589423 -80.10413616 78.14589423 -78 80 C-78 80.66 -78 81.32 -78 82 C-77.4225 82.28875 -76.845 82.5775 -76.25 82.875 C-74.86773443 83.56613278 -73.49967537 84.28787256 -72.16015625 85.05859375 C-69.65910599 86.14856321 -67.90547977 86.23458311 -65.1875 86.1875 C-64.31480469 86.17332031 -63.44210938 86.15914063 -62.54296875 86.14453125 C-60.31225985 86.01774749 -58.19815068 85.75748744 -56 85.375 C-55.01 85.25125 -54.02 85.1275 -53 85 C-51 87 -51 87 -51 89.4375 C-52 92 -52 92 -54.640625 93.625 C-61.11697664 96.27578579 -68.51879711 96.42841615 -75.02734375 93.7578125 C-78.7856777 91.53923651 -81.99862115 89.17288621 -85 86 C-85.71797472 97.60725791 -83.51685628 105.85477247 -76.01953125 114.8515625 C-66.52957265 124.94726313 -53.71532825 131.77203754 -41 137 C-41.103125 135.700625 -41.20625 134.40125 -41.3125 133.0625 C-41.26952767 126.20841343 -38.40554807 121.6099979 -33.83984375 116.65625 C-27.98035567 111.10000755 -27.98035567 111.10000755 -24.28125 110.72265625 C-22 111 -22 111 -21 112 C-20.69921875 114.34375 -20.69921875 114.34375 -21 117 C-22.64453125 118.84375 -22.64453125 118.84375 -24.8125 120.5 C-30.28227409 125.01997995 -30.28227409 125.01997995 -32.32250977 131.67480469 C-32.40299561 132.66383789 -32.48348145 133.65287109 -32.56640625 134.671875 C-32.6912439 136.16605957 -32.6912439 136.16605957 -32.81860352 137.69042969 C-32.87846436 138.45258789 -32.9383252 139.21474609 -33 140 C-28.70846555 140.08807085 -24.41716776 140.14074921 -20.125 140.1875 C-18.92101562 140.21263672 -17.71703125 140.23777344 -16.4765625 140.26367188 C-3.30964894 140.37101084 5.03516374 137.65607129 14.6875 128.625 C26.72874049 117.68169026 40.4140695 114.03399281 56.40234375 114.59375 C68.32051107 115.39513969 82.39525196 120.39525196 91 129 C91.125 131.5 91.125 131.5 91 134 C90 135 90 135 87.71484375 135.23046875 C84.53715269 134.96070793 83.17136838 134.10750996 80.5625 132.3125 C66.15839574 123.45975855 53.49486923 123.33931076 37 124 C37.50660156 124.76183594 37.50660156 124.76183594 38.0234375 125.5390625 C42.48462333 132.42424525 44.34169526 137.89672006 44.25 146.1875 C44.25773438 146.89841797 44.26546875 147.60933594 44.2734375 148.34179688 C44.25929517 152.10012031 44.13400293 153.7989956 42 157 C37.125 156.125 37.125 156.125 36 155 C35.92405697 153.09087666 35.85303409 151.18139554 35.81030273 149.27124023 C35.60873015 141.4702996 35.15692005 136.2147498 30 130 C26.57122257 130.58908511 24.87966857 131.7482294 22.375 134.125 C8.1030314 146.9487061 -4.50639784 150.0977005 -23.38964844 149.18017578 C-40.37849962 148.00754464 -57.97783154 141.26352934 -71.10546875 130.23046875 C-72.90421044 128.82356657 -72.90421044 128.82356657 -75.0078125 128.96875 C-86.27690996 131.79642021 -96.15203546 137.18254986 -103 146.8125 C-104.23576542 150.75150227 -104.50598677 154.49643386 -104.69140625 158.609375 C-105 161 -105 161 -107 163 C-109.5625 163.1875 -109.5625 163.1875 -112 163 C-113.82083964 161.17916036 -113.30044708 158.51987883 -113.375 156.0625 C-113.26609779 147.00381632 -110.20320884 141.13052508 -104.25 134.4375 C-97.89862523 128.37826683 -89.82123017 124.79837011 -82 121 C-82.38671875 120.5153125 -82.7734375 120.030625 -83.171875 119.53125 C-92.42117231 107.62621386 -95.40273825 95.93503669 -94 81 C-91.82676774 70.34205257 -85.09776757 60.04229092 -76 54 C-62.85925658 46.25701238 -51.04107319 45.68769141 -36.05078125 45.52148438 C-25.31290423 45.2885463 -11.95184791 44.76462058 -3 38 C1.90502865 31.83727169 2.61192815 26.63776986 2 19 C1.04627172 14.32834794 -0.32836171 11.24882639 -4.1875 8.375 C-7 6 -7 6 -7.375 2.6875 C-7.189375 1.3571875 -7.189375 1.3571875 -7 0 C-4.23404732 -1.38297634 -2.92817098 -0.89930474 0 0 Z " fill="#91AC97" transform="translate(153,133)"/>
<path d="M0 0 C1.15733643 0.02618408 2.31467285 0.05236816 3.50708008 0.0793457 C4.76069336 0.09545898 6.01430664 0.11157227 7.3059082 0.12817383 C8.61624023 0.17006836 9.92657227 0.21196289 11.27661133 0.25512695 C12.61185661 0.28021034 13.94714662 0.30302347 15.2824707 0.32348633 C18.5524784 0.38251174 21.82023466 0.46481219 25.08911133 0.56762695 C24.29680021 5.32707331 22.39825417 8.68255959 19.71411133 12.63012695 C19.2685791 13.28916016 18.82304687 13.94819336 18.36401367 14.62719727 C13.83353169 21.17245585 8.72553883 26.96228626 3.08911133 32.56762695 C2.16485352 33.49188477 1.2405957 34.41614258 0.28833008 35.3684082 C-11.90210644 47.03097738 -26.08923696 55.66001714 -40.91088867 63.56762695 C-41.55396973 63.91905762 -42.19705078 64.27048828 -42.85961914 64.63256836 C-44.72250099 65.64847065 -46.59532209 66.64263234 -48.47338867 67.63012695 C-49.54717773 68.19860352 -50.6209668 68.76708008 -51.72729492 69.3527832 C-56.62926308 71.22335019 -60.23917386 71.19073899 -65.14916992 69.3605957 C-66.16366211 68.83079102 -67.1781543 68.30098633 -68.22338867 67.75512695 C-69.25077148 67.23305664 -70.2781543 66.71098633 -71.33666992 66.1730957 C-73.91088867 64.56762695 -73.91088867 64.56762695 -75.91088867 61.56762695 C-74.79713867 61.10614258 -73.68338867 60.6446582 -72.53588867 60.16918945 C-56.16714178 53.23762761 -41.98162715 44.64249964 -28.91088867 32.56762695 C-28.40074219 32.10130859 -27.8905957 31.63499023 -27.36499023 31.15454102 C-18.70816276 23.15644487 -9.67338039 13.68762284 -4.66967773 2.88891602 C-2.91088867 0.56762695 -2.91088867 0.56762695 0 0 Z " fill="#7B9C82" transform="translate(161.910888671875,334.432373046875)"/>
<path d="M0 0 C9.87956066 0.49059462 19.33360714 2.02701352 29 4 C29 13.43807723 18.23598528 22.44693072 12 29 C11.51901855 29.50821289 11.03803711 30.01642578 10.54248047 30.54003906 C-10.39929992 52.5332066 -37.57098586 70.73757676 -68.734375 72.171875 C-71.49901549 72.18485453 -74.23958968 72.14360516 -77 72 C-73.93170546 68.69666978 -70.29696794 66.99179017 -66.3125 65 C-38.40316486 50.61756877 -13.05995721 28.98673429 0 0 Z " fill="#7B9C82" transform="translate(195,337)"/>
<path d="M0 0 C-11.76536537 24.84407384 -39.56419683 42.70979667 -64.21875 52.78125 C-68.72459169 54.23354608 -68.72459169 54.23354608 -72 53 C-74.140625 50.78515625 -74.140625 50.78515625 -76.25 48.0625 C-77.30960937 46.71865234 -77.30960937 46.71865234 -78.390625 45.34765625 C-80 43 -80 43 -80 41 C-79.48203857 40.78907715 -78.96407715 40.5781543 -78.43041992 40.36083984 C-64.32720325 34.59184011 -51.73700778 28.9057016 -40 19 C-38.989375 18.236875 -37.97875 17.47375 -36.9375 16.6875 C-32.43285109 12.56622547 -28.79800311 7.76549443 -25 3 C-20.66310328 -1.33689672 -5.82722649 -0.20446409 0 0 Z " fill="#7B9C82" transform="translate(149,336)"/>
<path d="M0 0 C-10.55180038 11.64588106 -22.58077234 18.9506679 -37 25 C-37.82371094 25.38285156 -38.64742187 25.76570313 -39.49609375 26.16015625 C-42.43998719 27.14757761 -44.91541201 27.14346921 -48 27 C-48.8233134 24.5239837 -49.63367191 22.04484514 -50.4375 19.5625 C-50.66759766 18.87478516 -50.89769531 18.18707031 -51.13476562 17.47851562 C-52.79331921 12.31055879 -53.53636715 7.40904996 -54 2 C-52.87694458 2.01571045 -52.87694458 2.01571045 -51.73120117 2.03173828 C-28.03370257 2.83277599 -28.03370257 2.83277599 -4.6875 -0.62890625 C-3 -1 -3 -1 0 0 Z " fill="#7B9C82" transform="translate(112,342)"/>
</svg>
