<?xml version="1.0" encoding="UTF-8"?>
<svg version="1.1" xmlns="http://www.w3.org/2000/svg" width="512" height="512">
<path d="M0 0 C100.98 0 201.96 0 306 0 C299 12 299 12 296.84765625 15.53125 C275.90862148 50.35327719 272.43034445 91.14919738 281.59204102 130.25292969 C286.71140976 150.64644619 296.52909003 169.30079889 307.5625 187.0625 C312.1843921 194.50427276 316.31964864 202.05044415 320.04833984 209.97705078 C320.68741987 211.3355467 321.33369817 212.6906776 321.98681641 214.04248047 C337.42319808 246.08181582 344.85591405 281.56908812 346 317 C346.04125 318.14339844 346.0825 319.28679687 346.125 320.46484375 C346.26963131 328.50092108 345.80212502 336.4856065 345.25 344.5 C345.15755005 345.98294556 345.15755005 345.98294556 345.06323242 347.49584961 C343.52108741 367.81597223 338.61623688 387.75596652 333.921875 407.52734375 C333.40906481 409.70790674 332.89685849 411.88861184 332.38525391 414.06945801 C330.51409909 422.02718334 328.63139551 429.98218959 326.75 437.9375 C322.5425 455.778125 318.335 473.61875 314 492 C268.13 492 222.26 492 175 492 C175 451.08 175 410.16 175 368 C160.48 368 145.96 368 131 368 C131 408.92 131 449.84 131 492 C85.13 492 39.26 492 -8 492 C-12.2075 474.159375 -16.415 456.31875 -20.75 437.9375 C-22.0709668 432.35191162 -23.39193359 426.76632324 -24.75292969 421.01147461 C-26.38525391 414.06945801 -26.38525391 414.06945801 -27.15313721 410.79615784 C-27.6788437 408.5607574 -28.20712205 406.32596066 -28.73760986 404.09169006 C-33.38823736 384.49078265 -37.9907713 364.72334487 -39.25 344.5625 C-39.32444336 343.46744141 -39.39888672 342.37238281 -39.47558594 341.24414062 C-43.16375713 283.76305783 -27.79591285 228.86511298 2.37890625 180.15234375 C26.06618771 141.77385375 35.25362314 97.78112233 24.96875 53.4609375 C20.79491949 36.58746416 13.21293218 21.57245094 4.1315918 6.8425293 C2.73722892 4.57213952 1.37081189 2.28468648 0 0 Z " fill="#F7F6F0" transform="translate(103,10)"/>
<path d="M0 0 C100.98 0 201.96 0 306 0 C299 12 299 12 296.84765625 15.53125 C275.90862148 50.35327719 272.43034445 91.14919738 281.59204102 130.25292969 C286.45438983 149.62258161 295.29337406 169.2165695 307.00390625 185.43359375 C308 187 308 187 308 189 C205.7 189 103.4 189 -2 189 C-0.30185561 184.75463903 1.65530884 181.20338449 4.0625 177.375 C26.89668779 140.01377741 34.90502757 96.27893363 24.96875 53.4609375 C20.79491949 36.58746416 13.21293218 21.57245094 4.1315918 6.8425293 C2.73722892 4.57213952 1.37081189 2.28468648 0 0 Z " fill="#7B9C82" transform="translate(103,10)"/>
<path d="M0 0 C0.60199219 0.68320312 1.20398438 1.36640625 1.82421875 2.0703125 C5.90571817 6.13896355 10.91997579 8.89325813 15.8125 11.875 C17.97927107 13.2120704 20.1459347 14.54931494 22.3125 15.88671875 C23.42109375 16.56782715 24.5296875 17.24893555 25.671875 17.95068359 C30.90137588 21.17078559 36.10669068 24.42928771 41.3125 27.6875 C42.31385986 28.31317871 43.31521973 28.93885742 44.34692383 29.58349609 C51.17455806 33.85083729 57.98572892 38.14356104 64.78955078 42.44873047 C74.14256726 48.3624154 83.5324913 54.21704024 92.91943359 60.07666016 C98.94373399 63.83790905 104.96553882 67.60315182 110.98779297 71.36767578 C116.04961403 74.53162365 121.11207148 77.69454438 126.17578125 80.85546875 C135.77242605 86.84700868 145.36508257 92.84480677 154.9375 98.875 C156.14563354 99.6342981 156.14563354 99.6342981 157.37817383 100.40893555 C158.47295044 101.09983276 158.47295044 101.09983276 159.58984375 101.8046875 C160.22784912 102.20671387 160.86585449 102.60874023 161.52319336 103.02294922 C163 104 163 104 164 105 C164.09600136 106.606892 164.12187889 108.21801769 164.12025452 109.82777405 C164.12232076 111.3915949 164.12232076 111.3915949 164.12442875 112.98700809 C164.12083064 114.14508693 164.11723253 115.30316576 164.11352539 116.49633789 C164.11364593 117.72556945 164.11376646 118.95480101 164.11389065 120.22128201 C164.1132656 123.55695666 164.10830655 126.89256978 164.10128021 130.22823334 C164.09560007 133.35426233 164.0953179 136.4802897 164.09460449 139.60632324 C164.08934983 148.75838691 164.07538877 157.9104439 164.0625 167.0625 C164.041875 187.501875 164.02125 207.94125 164 229 C118.13 229 72.26 229 25 229 C20.7925 211.159375 16.585 193.31875 12.25 174.9375 C10.9290332 169.35191162 9.60806641 163.76632324 8.24707031 158.01147461 C6.61474609 151.06945801 6.61474609 151.06945801 5.84686279 147.79615784 C5.3211563 145.5607574 4.79287795 143.32596066 4.26239014 141.09169006 C-0.38823736 121.49078265 -4.9907713 101.72334487 -6.25 81.5625 C-6.32444336 80.46744141 -6.39888672 79.37238281 -6.47558594 78.24414062 C-8.14660212 52.20092993 -6.5436591 25.34632513 0 0 Z " fill="#7B9C82" transform="translate(70,273)"/>
<path d="M0 0 C2.55865667 4.65222418 3.14706144 9.43491025 4 14.625 C4.26055176 16.20462524 4.26055176 16.20462524 4.52636719 17.81616211 C7.85725362 39.0154107 8.6998606 60.12240167 7.25 81.5 C7.18844727 82.48935547 7.12689453 83.47871094 7.06347656 84.49804688 C5.51867819 104.81759394 0.61618726 124.7561755 -4.078125 144.52734375 C-4.59093519 146.70790674 -5.10314151 148.88861184 -5.61474609 151.06945801 C-7.48590091 159.02718334 -9.36860449 166.98218959 -11.25 174.9375 C-15.4575 192.778125 -19.665 210.61875 -24 229 C-69.87 229 -115.74 229 -163 229 C-163.350625 208.766875 -163.70125 188.53375 -164.0625 167.6875 C-164.21726807 161.31397217 -164.37203613 154.94044434 -164.53149414 148.3737793 C-164.60827637 140.55236816 -164.60827637 140.55236816 -164.62254333 136.88337708 C-164.6485435 134.3366793 -164.70812724 131.79018306 -164.79478455 129.24482727 C-165.47188082 108.29795765 -165.47188082 108.29795765 -161.35086823 102.79974556 C-157.39310645 99.19422258 -152.99308883 96.91903325 -148.07109261 94.89460754 C-145.06260275 93.59509167 -142.48420817 91.8795527 -139.7578125 90.06640625 C-137.88101258 88.89714559 -136.00340933 87.72917339 -134.125 86.5625 C-132.05445792 85.27250383 -129.98414799 83.98213498 -127.9140625 82.69140625 C-126.91149414 82.06637207 -125.90892578 81.44133789 -124.87597656 80.79736328 C-120.74112098 78.21325405 -116.61956386 75.60839373 -112.5 73 C-102.38597704 66.5998126 -92.2336988 60.26123934 -82.08056641 53.92333984 C-77.05253513 50.78410777 -72.02634659 47.64192849 -67 44.5 C-65.00000915 43.24998536 -63.00000914 41.99998538 -61 40.75 C-60.01 40.13125 -59.02 39.5125 -58 38.875 C-49 33.25 -49 33.25 -45.99560547 31.37231445 C-44.01018064 30.13138348 -42.02482821 28.89033669 -40.03955078 27.64916992 C-34.81716058 24.38442459 -29.59325809 21.12213246 -24.3671875 17.86328125 C-23.28050781 17.18523437 -22.19382812 16.5071875 -21.07421875 15.80859375 C-18.99655843 14.51227577 -16.91845848 13.21666204 -14.83984375 11.921875 C-13.00909535 10.77922682 -11.18046016 9.63318209 -9.35449219 8.48291016 C-7.91785628 7.57808576 -6.47683576 6.68011577 -5.02832031 5.79443359 C-1.6243445 3.66888458 -1.6243445 3.66888458 0 0 Z " fill="#7B9C82" transform="translate(441,273)"/>
<path d="M0 0 C1 2 1 2 0.50419617 3.78065491 C0.21236954 4.50022873 -0.07945709 5.21980255 -0.38012695 5.96118164 C-0.7086113 6.78205261 -1.03709564 7.60292358 -1.37553406 8.44866943 C-1.74274063 9.34346008 -2.1099472 10.23825073 -2.48828125 11.16015625 C-3.04990715 12.5546701 -3.04990715 12.5546701 -3.62287903 13.97735596 C-4.84559207 17.00868738 -6.07898773 20.03554894 -7.3125 23.0625 C-8.14577442 25.1229859 -8.97829439 27.18377706 -9.81005859 29.24487305 C-11.45097916 33.30860221 -13.09561855 37.37079117 -14.74365234 41.43164062 C-17.56277648 48.381871 -20.34689535 55.34578686 -23.125 62.3125 C-23.89819968 64.24618886 -24.67160576 66.17979522 -25.4453125 68.11328125 C-25.74969238 68.87423096 -26.05407227 69.63518066 -26.36767578 70.41918945 C-26.57634277 70.94085693 -26.78500977 71.46252441 -27 72 C-27.98318714 68.92146781 -27.99466976 67.05632363 -27.06640625 63.97265625 C-26.8338916 63.19116211 -26.60137695 62.40966797 -26.36181641 61.60449219 C-26.09804199 60.76563477 -25.83426758 59.92677734 -25.5625 59.0625 C-25.29099121 58.18368164 -25.01948242 57.30486328 -24.73974609 56.39941406 C-19.77784576 40.66302187 -13.8023406 25.54330362 -6 11 C-5.39414063 9.86820313 -4.78828125 8.73640625 -4.1640625 7.5703125 C-2.79148555 5.03781137 -1.40612558 2.5139821 0 0 Z " fill="#7D9F87" transform="translate(99,201)"/>
<path d="M0 0 C13.81640921 12.04182454 20.45228125 39.50830427 25.6875 56.25 C26.2144043 57.91929565 26.2144043 57.91929565 26.75195312 59.62231445 C27.06455078 60.65960693 27.37714844 61.69689941 27.69921875 62.765625 C27.97596436 63.68118164 28.25270996 64.59673828 28.5378418 65.54003906 C29.02612561 68.13906055 28.71509108 69.50373157 28 72 C24.64046055 63.64759079 21.28469933 55.29367646 17.93368721 46.93784237 C16.37738835 43.05751081 14.8198168 39.17770055 13.25927734 35.29907227 C11.75196197 31.55259141 10.24806743 27.80475393 8.74648666 24.05597115 C8.17440056 22.62943745 7.60110521 21.20338806 7.02655411 19.77784538 C6.21903848 17.77367624 5.41592776 15.76779293 4.61376953 13.76147461 C3.92760056 12.052714 3.92760056 12.052714 3.22756958 10.30943298 C1.96186387 6.89718792 0.95420078 3.50983344 0 0 Z " fill="#7D9F87" transform="translate(412,201)"/>
</svg>
