<?xml version="1.0" encoding="UTF-8"?>
<svg version="1.1" xmlns="http://www.w3.org/2000/svg" width="512" height="425">
<path d="M0 0 C0.68119904 0.00054382 1.36239807 0.00108765 2.0642395 0.00164795 C13.42501914 0.04323024 24.10665232 0.99350173 35 4.375 C35.68513672 4.58398926 36.37027344 4.79297852 37.07617188 5.00830078 C52.43865946 9.85903894 65.95150243 17.70911691 78 28.375 C78.70382813 28.94734375 79.40765625 29.5196875 80.1328125 30.109375 C88.1488111 36.71078561 94.39233248 44.98189984 99.80859375 53.79296875 C100.20175781 54.31503906 100.59492188 54.83710937 101 55.375 C101.66 55.375 102.32 55.375 103 55.375 C104.1761733 53.82398659 104.1761733 53.82398659 105.375 51.75 C112.55763397 40.67021913 121.38940077 31.22652811 132 23.375 C132.77472656 22.77429688 133.54945313 22.17359375 134.34765625 21.5546875 C160.24896907 2.26923589 193.14006505 -3.43875644 224.69921875 1.06640625 C255.01081697 6.44605106 282.94719465 24.78229738 300.53271484 49.93261719 C321.54009222 81.36152183 324.68719948 117.92456551 318 154.375 C315.64413904 165.57797832 312.66881966 176.53634277 309 187.375 C310.205354 187.3435791 311.41070801 187.3121582 312.65258789 187.27978516 C317.14564036 187.17078125 321.63857718 187.10215725 326.13256836 187.04541016 C328.07352382 187.01532785 330.01434436 186.97445037 331.95483398 186.92236328 C334.75278065 186.84916745 337.54892336 186.81545899 340.34765625 186.7890625 C341.2083522 186.75809479 342.06904816 186.72712708 342.95582581 186.69522095 C348.66972404 186.69206431 351.57638474 187.92333404 355.71043396 191.88778687 C358.76046394 195.40528385 358.3866954 199.13773493 358.3515625 203.60546875 C357.7988962 207.95925102 356.25456215 209.49027446 353 212.375 C349.8377099 214.32560715 347.46380116 214.61996991 343.77246094 214.60205078 C342.73168396 214.60189972 341.69090698 214.60174866 340.61859131 214.60159302 C338.94340424 214.58610916 338.94340424 214.58610916 337.234375 214.5703125 C336.08584045 214.5674826 334.93730591 214.56465271 333.75396729 214.56173706 C330.08587219 214.55054263 326.4180213 214.52543904 322.75 214.5 C320.26302436 214.48996926 317.77604489 214.48084358 315.2890625 214.47265625 C309.19262502 214.45060568 303.09632996 214.41713525 297 214.375 C296.70520752 215.29144287 296.41041504 216.20788574 296.10668945 217.15209961 C294.80444959 220.94448179 293.06979626 224.41007681 291.1875 227.9375 C290.79788086 228.66783447 290.40826172 229.39816895 290.00683594 230.15063477 C281.21465325 246.37122433 271.0690542 261.63196185 260 276.375 C259.32541748 277.27919678 259.32541748 277.27919678 258.63720703 278.20166016 C253.22791117 285.43385391 247.53151945 292.39109325 241.65625 299.24609375 C239.18626898 302.13515296 236.80998176 305.09272089 234.4375 308.0625 C230.74381725 312.60857108 226.77580514 316.73529505 222.5546875 320.79296875 C220.52144326 322.84797554 218.6370334 324.92191501 216.75390625 327.109375 C212.72471405 331.75806638 208.42196216 336.10011106 204.0625 340.4375 C203.30259766 341.20126953 202.54269531 341.96503906 201.75976562 342.75195312 C197.59568914 346.90891761 193.34577962 350.89467548 188.88696289 354.7331543 C185.90998922 357.32341797 183.05761922 360.04271561 180.1875 362.75 C175.19454716 367.42183901 170.09431243 371.87300315 164.75390625 376.1484375 C162.28832681 378.14188471 159.87449322 380.18483858 157.47167969 382.25317383 C149.93972749 388.72443368 142.10756523 394.76130342 134.17724609 400.734375 C132.00639827 402.3701787 129.84078133 404.01271759 127.67578125 405.65625 C123.80358503 408.58951479 119.90921853 411.49131672 116 414.375 C115.09121094 415.05046875 114.18242187 415.7259375 113.24609375 416.421875 C108.90452637 419.50725283 105.51629983 421.57559272 100 421.375 C93.88038201 419.09272778 88.8232879 415.20158152 83.75 411.1875 C82.24650725 410.01639603 80.74259952 408.84582463 79.23828125 407.67578125 C78.51205566 407.10811035 77.78583008 406.54043945 77.03759766 405.95556641 C74.36833519 403.88501701 71.65647343 401.87982446 68.9375 399.875 C62.07725978 394.74866665 55.46861837 389.31962607 48.84960938 383.88818359 C47.21318501 382.54940875 45.56815619 381.22116648 43.921875 379.89453125 C38.37416068 375.41673326 33.03782293 370.76763891 27.80078125 365.9296875 C25.61372539 363.93479973 23.40608113 361.98004783 21.171875 360.0390625 C17.00821425 356.40644347 12.95763066 352.66532784 8.9375 348.875 C8.20869629 348.18792969 7.47989258 347.50085938 6.72900391 346.79296875 C-12.49697676 328.58632703 -12.49697676 328.58632703 -20.20703125 319.44921875 C-22.18211708 317.16431554 -24.23151866 314.96173973 -26.29370117 312.75561523 C-32.13722452 306.49888613 -37.6894312 300.09552904 -43 293.375 C-43.50225098 292.74529297 -44.00450195 292.11558594 -44.52197266 291.46679688 C-61.56375796 270.07273986 -76.41517964 247.75706503 -89.3125 223.625 C-89.69188721 222.91577393 -90.07127441 222.20654785 -90.4621582 221.47583008 C-93 216.6277854 -93 216.6277854 -93 214.375 C-93.63813629 214.38388245 -94.27627258 214.39276489 -94.93374634 214.4019165 C-101.58480865 214.49051746 -108.23570287 214.55078744 -114.88720703 214.59472656 C-117.36839611 214.61482241 -119.84953795 214.64210384 -122.33056641 214.67675781 C-125.90018382 214.72536294 -129.46917416 214.74798972 -133.0390625 214.765625 C-134.14553131 214.78627014 -135.25200012 214.80691528 -136.39199829 214.82818604 C-142.5989708 214.8299881 -146.28571185 214.54770652 -151 210.375 C-153.87676844 207.37607579 -154.47490811 205.19099793 -154.5625 201.0625 C-154.44410651 195.86015095 -153.12551601 193.26984466 -149.5078125 189.6171875 C-145.72435066 186.50024225 -141.49228081 187.25023416 -136.8359375 187.27734375 C-135.92872955 187.2787587 -135.02152161 187.28017365 -134.08682251 187.28163147 C-131.18284845 187.28723904 -128.27895085 187.29979282 -125.375 187.3125 C-123.40885528 187.31751402 -121.44270935 187.3220771 -119.4765625 187.32617188 C-114.6510121 187.33721094 -109.82551903 187.35448065 -105 187.375 C-105.17930054 186.80315475 -105.35860107 186.23130951 -105.54333496 185.64213562 C-118.44972705 144.3971254 -123.55200928 101.95992136 -103.23901367 62.14331055 C-87.4807946 32.67267629 -61.1097045 13.00965849 -29.42578125 3.234375 C-19.56169884 0.75991875 -10.17188986 -0.01374495 0 0 Z " fill="#7B9C82" transform="translate(154,0.625)"/>
<path d="M0 0 C0.33 0 0.66 0 1 0 C5.46746008 23.10475511 9.89568134 46.21390395 14.0625 69.375 C16.76376294 84.38904316 19.59588315 99.37119645 22.56262207 114.33505249 C24.45476142 123.88231544 26.27924081 133.43524324 27.953125 143.0234375 C28.11094955 143.92368149 28.26877411 144.82392548 28.43138123 145.75144958 C29.1856678 150.06305228 29.92885957 154.37611869 30.65454102 158.69262695 C30.92173851 160.23654271 31.18921971 161.78040939 31.45703125 163.32421875 C31.56924011 164.01603241 31.68144897 164.70784607 31.79705811 165.42062378 C32.7018747 170.55813767 34.09903648 175.09903648 37.84765625 178.84765625 C41.97683536 181.05837828 46.46178009 180.60599376 51 180 C55.23114536 177.66855256 56.4677775 175.45238067 58 171 C58.48511066 168.69927742 58.90982841 166.3854768 59.29345703 164.06567383 C59.40784245 163.38356496 59.52222786 162.70145609 59.6400795 161.99867725 C60.01812239 159.73566605 60.38801515 157.47140327 60.7578125 155.20703125 C61.02441177 153.59988903 61.29148107 151.99282472 61.55899048 150.38583374 C62.27352302 146.08427015 62.98086491 141.78155237 63.68681335 137.47857285 C64.27009763 133.92967791 64.85797333 130.38155039 65.44593811 126.83342838 C68.21120767 110.14385389 70.94436003 93.44932938 73.6015625 76.7421875 C73.88503036 74.96049416 73.88503036 74.96049416 74.17422485 73.14280701 C75.03317841 67.73355239 75.88535708 62.32334419 76.72705078 56.91137695 C76.87733734 55.95445953 77.0276239 54.99754211 77.1824646 54.0116272 C77.45806726 52.25652942 77.730457 50.50092269 77.99893188 48.74472046 C78.88719783 43.11280217 78.88719783 43.11280217 80 42 C88.0981055 40.54260842 99.98098714 38.61481902 107.14794922 43.44873047 C110.90062244 47.4991505 113.24213415 52.37035433 115.62695312 57.30810547 C118.04304424 62.04491568 121.05593277 66.3923079 124 70.8125 C125.0631025 72.46445617 126.12563764 74.11677766 127.1875 75.76953125 C131.32519669 82.10446713 131.32519669 82.10446713 137 87 C139.07653123 87.39090193 139.07653123 87.39090193 141.3125 87.375 C142.05113281 87.40335937 142.78976562 87.43171875 143.55078125 87.4609375 C149.8521654 86.27503107 153.73846306 81.36004147 157.5625 76.625 C158.01818359 76.07328125 158.47386719 75.5215625 158.94335938 74.953125 C159.80511425 73.90872222 160.66375848 72.86173668 161.51782227 71.81103516 C162.00694092 71.21339355 162.49605957 70.61575195 163 70 C164.05563644 68.48004425 164.05563644 68.48004425 165.13259888 66.92938232 C167.33037841 64.31328296 167.8547765 64.03072267 171.41059875 63.2784729 C173.36584724 63.2984584 173.36584724 63.2984584 175.3605957 63.31884766 C176.08309006 63.3179715 176.80558441 63.31709534 177.54997253 63.31619263 C179.92636122 63.32035658 182.29988899 63.36694327 184.67578125 63.4140625 C186.32771767 63.4252591 187.97967407 63.4337971 189.63163757 63.43978882 C193.97062603 63.46265122 198.30840117 63.52155041 202.64691162 63.5880127 C207.07759183 63.64949215 211.50846893 63.67681581 215.93945312 63.70703125 C224.62685767 63.77129771 233.31327772 63.87364386 242 64 C240.46313418 68.77776678 238.54706178 73.14068122 236.1875 77.5625 C235.79788086 78.29283447 235.40826172 79.02316895 235.00683594 79.77563477 C226.21465325 95.99622433 216.0690542 111.25696185 205 126 C204.32541748 126.90419678 204.32541748 126.90419678 203.63720703 127.82666016 C198.22791117 135.05885391 192.53151945 142.01609325 186.65625 148.87109375 C184.18626898 151.76015296 181.80998176 154.71772089 179.4375 157.6875 C175.74381725 162.23357108 171.77580514 166.36029505 167.5546875 170.41796875 C165.52144326 172.47297554 163.6370334 174.54691501 161.75390625 176.734375 C157.72471405 181.38306638 153.42196216 185.72511106 149.0625 190.0625 C147.92264648 191.2081543 147.92264648 191.2081543 146.75976562 192.37695312 C142.59568914 196.53391761 138.34577962 200.51967548 133.88696289 204.3581543 C130.90998922 206.94841797 128.05761922 209.66771561 125.1875 212.375 C120.19454716 217.04683901 115.09431243 221.49800315 109.75390625 225.7734375 C107.28832681 227.76688471 104.87449322 229.80983858 102.47167969 231.87817383 C94.93972749 238.34943368 87.10756523 244.38630342 79.17724609 250.359375 C77.00639827 251.9951787 74.84078133 253.63771759 72.67578125 255.28125 C68.80358503 258.21451479 64.90921853 261.11631672 61 264 C59.63681641 265.01320313 59.63681641 265.01320313 58.24609375 266.046875 C53.90452637 269.13225283 50.51629983 271.20059272 45 271 C38.88038201 268.71772778 33.8232879 264.82658152 28.75 260.8125 C27.24650725 259.64139603 25.74259952 258.47082463 24.23828125 257.30078125 C23.51205566 256.73311035 22.78583008 256.16543945 22.03759766 255.58056641 C19.36833519 253.51001701 16.65647343 251.50482446 13.9375 249.5 C7.07725978 244.37366665 0.46861837 238.94462607 -6.15039062 233.51318359 C-7.78681499 232.17440875 -9.43184381 230.84616648 -11.078125 229.51953125 C-16.62583932 225.04173326 -21.96217707 220.39263891 -27.19921875 215.5546875 C-29.38627461 213.55979973 -31.59391887 211.60504783 -33.828125 209.6640625 C-37.99178575 206.03144347 -42.04236934 202.29032784 -46.0625 198.5 C-46.79130371 197.81292969 -47.52010742 197.12585938 -48.27099609 196.41796875 C-67.49697676 178.21132703 -67.49697676 178.21132703 -75.20703125 169.07421875 C-77.18211708 166.78931554 -79.23151866 164.58673973 -81.29370117 162.38061523 C-87.13722452 156.12388613 -92.6894312 149.72052904 -98 143 C-98.75337646 142.05543945 -98.75337646 142.05543945 -99.52197266 141.09179688 C-116.56375796 119.69773986 -131.41517964 97.38206503 -144.3125 73.25 C-144.69188721 72.54077393 -145.07127441 71.83154785 -145.4621582 71.10083008 C-148 66.2527854 -148 66.2527854 -148 64 C-121.27 64 -94.54 64 -67 64 C-61.555 73.9 -61.555 73.9 -56 84 C-50.94960545 88.18381845 -50.94960545 88.18381845 -44.984375 88.30078125 C-41.59756793 87.78742663 -39.7672992 87.09084829 -37 85 C-31.71709922 76.67590412 -28.43819442 66.71515078 -24.67037964 57.63348389 C-23.48537699 54.77725394 -22.29610697 51.92283444 -21.10571289 49.06884766 C-19.11117115 44.28545689 -17.11994426 39.50069515 -15.12969971 34.71551514 C-12.51842529 28.43866549 -9.90246647 22.16378511 -7.27978516 15.89169312 C-6.45002593 13.90499098 -5.62335756 11.91702211 -4.796875 9.92895508 C-4.30574219 8.75357178 -3.81460938 7.57818848 -3.30859375 6.3671875 C-2.88376709 5.34737793 -2.45894043 4.32756836 -2.02124023 3.27685547 C-1 1 -1 1 0 0 Z " fill="#7B9C82" transform="translate(209,151)"/>
<path d="M0 0 C4.20157594 1.77399873 6.47588143 4.24088384 9 8 C10.06253651 11.12720694 10.64495885 14.31966964 11.25 17.5625 C11.45197998 18.58351807 11.65395996 19.60453613 11.86206055 20.65649414 C14.32492491 33.29437761 16.56185582 45.97843242 18.84008789 58.65063477 C21.33111968 72.4817755 23.97127417 86.27873855 26.6942749 100.06591797 C29.1172754 112.340169 31.4247055 124.62600685 33.54174805 136.95703125 C33.72261963 138.00117188 33.90349121 139.0453125 34.08984375 140.12109375 C34.31982056 141.47352173 34.31982056 141.47352173 34.55444336 142.85327148 C34.91231807 145.03806586 34.91231807 145.03806586 36 147 C36.11861893 146.26608032 36.23723785 145.53216064 36.35945129 144.77600098 C37.48342107 137.83110775 38.61535967 130.88757033 39.75607777 123.94541168 C40.34213703 120.37705796 40.92519451 116.80826946 41.5012207 113.23828125 C42.05810903 109.78762367 42.62310556 106.33838015 43.1935482 102.88993835 C43.51305898 100.94563541 43.82434168 98.99998603 44.13545227 97.05432129 C46.76762403 81.25134927 46.76762403 81.25134927 51.44165039 76.53759766 C56.6096634 74.30444871 61.35691903 74.38924968 66.93359375 74.3984375 C68.08489273 74.38986725 69.23619171 74.381297 70.42237854 74.37246704 C72.85227839 74.36100326 75.28224685 74.35996317 77.7121582 74.36865234 C81.42193064 74.37497347 85.1285123 74.32803244 88.83789062 74.27734375 C91.20312099 74.27279741 93.5683599 74.27139094 95.93359375 74.2734375 C97.03795273 74.25501801 98.14231171 74.23659851 99.28013611 74.21762085 C105.49261256 74.29195052 109.2416972 74.88861931 113.67149353 79.41479492 C115.29922693 81.35704459 116.78428652 83.25480161 118.09765625 85.42578125 C118.58943359 86.22306641 119.08121094 87.02035156 119.58789062 87.84179688 C120.31782227 89.06479492 120.31782227 89.06479492 121.0625 90.3125 C122.05222769 91.93430083 123.04311091 93.55539707 124.03515625 95.17578125 C124.5161377 95.96936035 124.99711914 96.76293945 125.49267578 97.58056641 C127.52825805 100.84791663 129.70061547 104.01505301 131.89624023 107.17651367 C133 109 133 109 133 111 C136.38224172 107.71723597 139.43783439 104.33658295 142.375 100.6484375 C145.14029421 97.84325924 147.80342962 96.16881743 151.73526573 95.61409664 C152.73185015 95.60906911 153.72843456 95.60404158 154.75521851 95.59886169 C155.90471481 95.58606674 157.05421112 95.57327179 158.23854065 95.56008911 C160.11665688 95.56212845 160.11665688 95.56212845 162.03271484 95.56420898 C163.37183981 95.55522707 164.71095703 95.54501782 166.05006409 95.53367615 C169.68032923 95.50721596 173.31038213 95.50014441 176.94073439 95.49822879 C179.21076243 95.49609391 181.4807368 95.48968465 183.7507515 95.48173714 C191.67566596 95.45399705 199.60042922 95.44172995 207.52539062 95.4440918 C214.90386619 95.44589388 222.28168356 95.41423989 229.65999258 95.36686081 C236.00243222 95.3275899 242.34465711 95.31154193 248.68721735 95.31345803 C252.47200529 95.3142217 256.25620804 95.30574134 260.04087448 95.27392387 C263.60185491 95.24480307 267.16169388 95.24469247 270.72271538 95.26647377 C272.64533412 95.27108863 274.56795333 95.24612247 276.49040222 95.22015381 C283.06158662 95.29173696 287.12376846 95.72181287 291.83837318 100.51780796 C294.68059545 104.14437646 294.38662029 107.77228645 294.3515625 112.23046875 C293.7988962 116.58425102 292.25456215 118.11527446 289 121 C285.83995518 122.95090597 283.50528309 123.23556319 279.81628418 123.18426514 C278.76794403 123.17519638 277.71960388 123.16612762 276.63949585 123.15678406 C275.49453644 123.13694962 274.34957703 123.11711517 273.16992188 123.09667969 C270.66125711 123.07088851 268.15258999 123.04532554 265.6439209 123.0199585 C264.29900388 123.00306602 262.95408914 122.98599087 261.60917664 122.96874237 C257.43858591 122.91805703 253.2681433 122.89547708 249.09729004 122.87994385 C248.03958664 122.87586789 248.03958664 122.87586789 246.9605155 122.87170959 C245.51853471 122.86627635 244.07655354 122.86094119 242.63457203 122.85570192 C232.9284854 122.82003141 223.22372633 122.76945757 213.51855469 122.62646484 C206.96687846 122.53013954 200.41693563 122.48410835 193.86453295 122.49506879 C190.40169135 122.49892285 186.94313782 122.47809023 183.48118591 122.39571381 C168.25286478 121.36754358 168.25286478 121.36754358 154.77661133 126.97277832 C152.11182336 129.77859041 150.07677605 132.80204649 148.14375305 136.14209747 C145.27707611 140.79870261 142.10053923 144.83203947 137 147 C134.88671875 147.40625 134.88671875 147.40625 132.6875 147.5 C131.96949219 147.5515625 131.25148438 147.603125 130.51171875 147.65625 C124.6146414 146.11548951 120.61629713 140.99947613 117.59545898 135.94921875 C117.05320679 135.01529297 117.05320679 135.01529297 116.5 134.0625 C116.08242432 133.39734375 115.66484863 132.7321875 115.23461914 132.046875 C112.5453232 127.74632611 110.17053615 123.3769271 107.90234375 118.83984375 C102.51623837 107.74601126 102.51623837 107.74601126 92.87988281 100.98095703 C85.51311013 100.01598379 78.28809755 100.70674115 71 102 C70.77449463 103.44391113 70.77449463 103.44391113 70.54443359 104.91699219 C67.60588099 123.71283066 64.6347384 142.50215205 61.46899414 161.26123047 C61.21622672 162.76007734 60.96354355 164.25893842 60.7109375 165.7578125 C60.58103928 166.52846039 60.45114105 167.29910828 60.31730652 168.09310913 C59.29611949 174.17696802 58.30659571 180.26568023 57.32408142 186.355896 C56.52549625 191.29933786 55.71917579 196.24150538 54.91226196 201.18359375 C54.5145743 203.63127603 54.12030973 206.07951709 53.72958374 208.52832031 C53.17896618 211.97613619 52.61614081 215.42176268 52.05078125 218.8671875 C51.88845001 219.90310028 51.72611877 220.93901306 51.55886841 222.00631714 C50.50798996 228.31757631 49.21401434 233.37085798 45 238.375 C40.40807617 240.86229208 36.10296124 240.86795235 31 240 C27.56264148 238.34245953 25.51375094 236.12195575 23.90844727 232.61621094 C23.05854839 230.1686118 22.48247809 227.87522135 22.02734375 225.328125 C21.85485107 224.3798584 21.6823584 223.4315918 21.50463867 222.45458984 C21.31748291 221.3970752 21.13032715 220.33956055 20.9375 219.25 C20.49488377 216.80987913 20.05216688 214.36977651 19.609375 211.9296875 C19.35596018 210.52314073 19.10271299 209.11656374 18.84960938 207.70996094 C17.14753736 198.2615903 15.41706604 188.81836869 13.6875 179.375 C13.49414062 178.31813995 13.30078125 177.26127991 13.1015625 176.1723938 C10.32302792 160.99956515 7.43946655 145.85121081 4.44973755 130.71868896 C1.33886021 114.95808103 -1.55718167 99.16172932 -4.38696289 83.34838867 C-4.54730515 82.45560715 -4.7076474 81.56282562 -4.87284851 80.64299011 C-5.16958031 78.98949914 -5.46473886 77.33572461 -5.75788879 75.68159485 C-6.70193916 70.42116881 -7.80368223 65.20873616 -9 60 C-9.45624756 61.093125 -9.91249512 62.18625 -10.38256836 63.3125 C-14.63242369 73.49141872 -18.89358246 83.66552214 -23.16371155 93.83595276 C-25.67028194 99.81142558 -28.15914473 105.79383825 -30.6315155 111.78353882 C-32.15226188 115.46177304 -33.68424629 119.13525899 -35.21853638 122.80786133 C-35.94514941 124.55447309 -36.66677089 126.30317017 -37.38327026 128.05395508 C-38.38452318 130.49860756 -39.40304661 132.93536583 -40.42578125 135.37109375 C-40.7147226 136.08897568 -41.00366394 136.8068576 -41.30136108 137.54649353 C-43.15061565 141.88801958 -45.02335039 144.4409651 -49 147 C-52.7657306 148.25524353 -56.10406089 148.73728921 -60 148 C-66.15784267 144.43725422 -69.06540097 138.88867337 -71.9375 132.625 C-72.33517578 131.79355469 -72.73285156 130.96210938 -73.14257812 130.10546875 C-74.11023277 128.07689154 -75.06204337 126.04243339 -76 124 C-76.67991564 123.99853344 -77.35983128 123.99706688 -78.06035042 123.99555588 C-94.61112574 123.95848961 -111.16166292 123.89947746 -127.71226692 123.81609726 C-135.71605893 123.77630315 -143.71975257 123.74391259 -151.72363281 123.72900391 C-158.70056331 123.71598926 -165.67727738 123.68902958 -172.65408599 123.64538693 C-176.34764182 123.62276764 -180.04093068 123.60708958 -183.73456192 123.60811615 C-187.85996843 123.60900126 -191.98458745 123.57875086 -196.10986328 123.54589844 C-197.33193985 123.5509288 -198.55401642 123.55595917 -199.81312561 123.56114197 C-206.16011835 123.48281133 -210.20410837 123.33153184 -215 119 C-217.87676844 116.00107579 -218.47490811 113.81599793 -218.5625 109.6875 C-218.44410651 104.48515095 -217.12551601 101.89484466 -213.5078125 98.2421875 C-210.44567074 95.7194904 -208.14818818 95.8684129 -204.25714111 95.85282898 C-203.03459625 95.84567368 -201.81205139 95.83851837 -200.55245972 95.83114624 C-199.19024684 95.82830584 -197.82803368 95.82559413 -196.46582031 95.82299805 C-195.03685337 95.81673425 -193.60788807 95.81008753 -192.17892456 95.80308533 C-188.29034007 95.78566666 -184.40176788 95.77512098 -180.51315403 95.7668798 C-178.08386839 95.76173092 -175.65458659 95.75565511 -173.22530365 95.74936867 C-165.62525663 95.73031321 -158.02521934 95.71608346 -150.42515302 95.7077567 C-141.65120058 95.69798531 -132.8775005 95.67167001 -124.10363698 95.63125581 C-117.32308972 95.60109486 -110.54261479 95.58628781 -103.76200175 95.58297569 C-99.71183888 95.58062495 -95.66194548 95.57166193 -91.61185455 95.54651451 C-87.79999503 95.52322925 -83.9885823 95.51900212 -80.17667007 95.52927589 C-78.77947376 95.52977128 -77.38225543 95.52344988 -75.9851265 95.50971985 C-62.807602 95.38749231 -62.807602 95.38749231 -58 100 C-57.67 100.66 -57.34 101.32 -57 102 C-52.34297744 93.32254667 -48.6639184 84.23585183 -44.89971924 75.14901733 C-42.92353047 70.38091248 -40.93308166 65.61875447 -38.9453125 60.85546875 C-38.53828094 59.87921036 -38.13124939 58.90295197 -37.71188354 57.89710999 C-33.73605159 48.36133549 -29.75102895 38.82955092 -25.73156738 29.31207275 C-24.998665 27.57376413 -24.26808244 25.83447546 -23.53991699 24.09417725 C-22.52463473 21.6683506 -21.50156608 19.24595069 -20.4765625 16.82421875 C-20.03544632 15.76295525 -20.03544632 15.76295525 -19.5854187 14.68025208 C-15.37644204 4.80378777 -11.42337618 -1.49445602 0 0 Z " fill="#FDFDFD" transform="translate(218,92)"/>
<path d="M0 0 C1.65050147 0.01306611 3.30103021 0.0230255 4.9515686 0.03001404 C9.28252964 0.05666089 13.6118307 0.12535105 17.94213867 0.20294189 C22.36614528 0.2747259 26.79042183 0.30655769 31.21484375 0.34179688 C39.88617597 0.41672809 48.55616239 0.53609766 57.2265625 0.68359375 C55.68969668 5.46136053 53.77362428 9.82427497 51.4140625 14.24609375 C51.02444336 14.97642822 50.63482422 15.7067627 50.23339844 16.45922852 C41.44121575 32.67981808 31.2956167 47.9405556 20.2265625 62.68359375 C19.77684082 63.2863916 19.32711914 63.88918945 18.86376953 64.51025391 C13.45447367 71.74244766 7.75808195 78.699687 1.8828125 85.5546875 C-0.58716852 88.44374671 -2.96345574 91.40131464 -5.3359375 94.37109375 C-9.02962025 98.91716483 -12.99763236 103.0438888 -17.21875 107.1015625 C-19.25199424 109.15656929 -21.1364041 111.23050876 -23.01953125 113.41796875 C-27.04872345 118.06666013 -31.35147534 122.40870481 -35.7109375 126.74609375 C-36.47083984 127.50986328 -37.23074219 128.27363281 -38.01367188 129.06054688 C-42.17774836 133.21751136 -46.42765788 137.20326923 -50.88647461 141.04174805 C-53.86344828 143.63201172 -56.71581828 146.35130936 -59.5859375 149.05859375 C-64.57889034 153.73043276 -69.67912507 158.1815969 -75.01953125 162.45703125 C-77.48511069 164.45047846 -79.89894428 166.49343233 -82.30175781 168.56176758 C-89.83371001 175.03302743 -97.66587227 181.06989717 -105.59619141 187.04296875 C-107.76703923 188.67877245 -109.93265617 190.32131134 -112.09765625 191.96484375 C-115.96985247 194.89810854 -119.86421897 197.79991047 -123.7734375 200.68359375 C-124.68222656 201.3590625 -125.59101563 202.03453125 -126.52734375 202.73046875 C-130.86891113 205.81584658 -134.25713767 207.88418647 -139.7734375 207.68359375 C-145.89316518 205.40128063 -150.94990525 201.51000132 -156.0234375 197.49609375 C-157.52307741 196.32896426 -159.02307894 195.16229926 -160.5234375 193.99609375 C-161.24917969 193.42890625 -161.97492188 192.86171875 -162.72265625 192.27734375 C-165.46355639 190.14727278 -168.23931265 188.06937821 -171.0234375 185.99609375 C-177.32281348 181.28906004 -183.55069868 176.49116132 -189.7734375 171.68359375 C-189.39551857 169.19507104 -189.06002265 167.95716862 -187.21386719 166.19482422 C-186.54774414 165.73479004 -185.88162109 165.27475586 -185.1953125 164.80078125 C-184.4532959 164.27871094 -183.7112793 163.75664062 -182.94677734 163.21875 C-182.1470752 162.67089844 -181.34737305 162.12304688 -180.5234375 161.55859375 C-178.86353266 160.39081494 -177.20468383 159.2215337 -175.546875 158.05078125 C-174.72928711 157.47682617 -173.91169922 156.90287109 -173.06933594 156.31152344 C-154.5690474 143.19370932 -136.96309978 128.2976993 -120.26953125 112.9609375 C-118.04969199 110.93563815 -115.79950234 108.95761604 -113.5234375 106.99609375 C-110.383156 104.27068684 -107.45936983 101.39099091 -104.546875 98.42578125 C-102.72543335 96.63643548 -100.83629471 94.97070843 -98.8984375 93.30859375 C-92.25323786 87.563131 -86.22106375 81.30418372 -80.51171875 74.63671875 C-78.71792728 72.62122272 -76.83444701 70.74982487 -74.8984375 68.87109375 C-70.94809329 64.98164117 -67.51157602 60.77513259 -64.046875 56.453125 C-61.93158317 53.87624887 -59.73209448 51.43533274 -57.4609375 48.99609375 C-52.37096366 43.42221395 -47.94503403 37.38980799 -43.47265625 31.3203125 C-37.53783011 23.29163332 -37.53783011 23.29163332 -34.0234375 20.49609375 C-30.399951 17.5954745 -27.72225297 14.03810047 -24.8984375 10.37890625 C-24.1971875 9.48945313 -23.4959375 8.6 -22.7734375 7.68359375 C-22.46642914 7.09935135 -22.15942078 6.51510895 -21.84310913 5.91316223 C-17.00208935 -1.86883563 -8.07782225 -0.18752121 0 0 Z " fill="#617A67" transform="translate(393.7734375,214.31640625)"/>
<path d="M0 0 C26.82955365 4.33272295 51.57403029 23.23718633 67.3125 44.8125 C88.83205896 75.57931595 92.45671634 111.65304253 86.56542969 147.91796875 C84.31091202 160.20684227 80.9468266 172.15952021 77 184 C52.25 184 27.5 184 2 184 C4.31 178.72 6.62 173.44 9 168 C10.38964116 164.56863651 11.75709617 161.14913869 13.0625 157.6875 C13.39411133 156.80852051 13.72572266 155.92954102 14.06738281 155.02392578 C28.92345373 115.15274795 36.68903999 71.26584102 19 31 C18.73316406 30.38930664 18.46632813 29.77861328 18.19140625 29.14941406 C14.64947567 21.21396434 10.38545692 14.38971055 5.015625 7.62109375 C3.12850943 5.16711207 1.53431402 2.68504954 0 0 Z " fill="#617A67" transform="translate(386,4)"/>
</svg>
